<svg xmlns="http://www.w3.org/2000/svg" fill="none" viewBox="0 0 256 256">
  <g clip-path="url(#a)">
    <path fill="#616161" stroke="#EDEDED" stroke-width="7"
      d="M221.5 3.5h-187c-17.1208 0-31 13.8792-31 31v187c0 17.121 13.8792 31 31 31h187c17.121 0 31-13.879 31-31v-187c0-17.1208-13.879-31-31-31Z" />
    <path fill="#EDEDED"
      d="M135.556 76.2683c-17.847-16.0696-45.3643-14.6275-61.4339 3.2196-16.0696 17.8471-14.6275 45.3641 3.2196 61.4341l43.1023 38.809c17.847 16.07 45.364 14.628 61.434-3.219s14.628-45.365-3.22-61.434l-43.102-38.8097Zm35.418 63.5967c1.786 1.608 2.86 3.86 2.986 6.26.126 2.401-.707 4.753-2.315 6.539-1.609 1.786-3.861 2.86-6.261 2.986-2.4.126-4.752-.707-6.538-2.315-1.786-1.609-2.861-3.861-2.986-6.261-.126-2.4.707-4.752 2.315-6.538 1.608-1.786 3.86-2.861 6.26-2.986 2.401-.126 4.753.707 6.539 2.315Zm-38.128 7.132c1.608-1.786 3.86-2.86 6.26-2.986 2.401-.126 4.752.707 6.539 2.315 1.786 1.608 2.86 3.86 2.986 6.26.125 2.401-.707 4.753-2.316 6.539-1.608 1.786-3.86 2.86-6.26 2.986-2.4.126-4.752-.707-6.538-2.315-1.787-1.609-2.861-3.861-2.987-6.261-.125-2.4.708-4.752 2.316-6.538Zm-21.948-51.4689c2.016-2.2393 5.44-2.4188 7.679-.4025s2.419 5.4404.402 7.6794l-4.851 5.388 5.388 4.851c2.239 2.016 2.419 5.44.402 7.679-2.016 2.239-5.44 2.419-7.679.403l-5.388-4.852-4.851 5.388c-2.0162 2.239-5.4398 2.419-7.6791.403-2.2393-2.017-2.4188-5.44-.4025-7.68l4.8512-5.387-5.3878-4.852c-2.2393-2.016-2.4187-5.4396-.4024-7.6789 2.0162-2.2393 5.4399-2.4187 7.6796-.4024l5.387 4.8513 4.852-5.3879Z" />
  </g>
  <defs>
    <clipPath id="a">
      <path fill="#fff" d="M0 0h256v256H0z" />
    </clipPath>
  </defs>
</svg>