<svg xmlns="http://www.w3.org/2000/svg" fill="none" viewBox="0 0 82 64">
  <g clip-path="url(#a)">
    <g fill="currentColor" clip-path="url(#b)">
      <path
        d="M30.6629 0c3.5658.666902 7.0708 1.61962 10.5588 2.61264 1.9954.58141 3.9853 1.18296 5.9624 1.8236 3.1057.99242 6.198 2.11613 9.0109 3.79194 1.26.76767 2.4702 1.63489 3.5044 2.69262 1.1206 1.0987 2.038 2.402 2.7112 3.8201 1.2266 2.5699 1.6466 5.4408 1.7708 8.2636.0584 1.8419.0548 3.6997-.2879 5.5178-.2849 1.5799-.7914 3.1378-1.6338 4.5101-.7439 1.2123-1.7781 2.2603-3.0333 2.9357-1.204.6511-2.5828.9613-3.9482.9338-2.0708.022-4.0802-.6406-5.9386-1.5085-.0335-6.2006-.0049-12.4024-.0146-18.6024-.0134-1.1219.0627-2.2553-.1626-3.362-.1582-.8574-.507-1.7216-1.1778-2.3036-.445-.4024-1.0215-.6296-1.601-.7524-.5862-.1117-1.2113.138-1.5741.6101-.6033.7561-.7615 1.7601-.7889 2.7012-.0049 16.5999.0061 33.2004-.0049 49.799-4.4509-1.415-8.9025-2.8312-13.3522-4.2505-.0049-19.7445-.0031-39.4883-.0006-59.2328ZM10.6567 42.0069c5.8029-2.0612 11.5997-4.1419 17.4051-6.1963.0091 2.2859 0 4.5724.0036 6.8601-.0036.3103.0165.6218-.0225.9302-4.5885 1.6318-9.1679 3.2923-13.7522 4.9346-.6355.2406-1.2874.5136-1.7774 1.0003-.2283.2284-.414.5655-.2892.8929.1571.3853.5491.5948.9107.7536 1.0056.4104 2.1049.4684 3.1763.5179 1.1943-.0189 2.3935-.1087 3.5634-.3677.7907-.1557 1.5516-.4232 2.3052-.7072 1.9589-.7115 3.9178-1.4272 5.8797-2.1314.0146 1.9336.0024 3.8683.006 5.8037-.006.3865.0177.7756-.0207 1.1609-2.4093.4343-4.8472.7292-7.2961.7677-4.9312.1118-9.874-.6541-14.5581-2.2004-1.53641-.4464-3.06308-1.0407-4.34565-2.0196-.70612-.5485-1.337967-1.238-1.659371-2.0863-.2690535-.7182-.2495745-1.5481.08583-2.2413.32323-.6913.888121-1.2379 1.510231-1.6624 1.43962-.9973 3.02716-1.7576 4.63601-2.4361 1.38605-.5936 2.82385-1.0553 4.23915-1.5732Z" />
      <path
        d="M57.3473 39.4032c1.316-.1527 2.6406-.1887 3.9634-.2364 4.3529.0165 8.7278.5601 12.8914 1.87.8169.2492 1.6083.5717 2.4221.8318 1.4506.532 2.903 1.1769 4.0644 2.223.6982.6389 1.2996 1.4994 1.3082 2.482.0414.7994-.3196 1.5665-.8364 2.1564-.9837 1.1067-2.2839 1.867-3.5896 2.5302-1.3897.7109-2.8835 1.1696-4.3408 1.7107-8.8946 3.2044-17.7898 6.4076-26.6832 9.6157-.0012-2.4997.0024-4.9987-.0012-7.4972.0133-.0995-.0414-.2736.0992-.2998 6.7677-2.416 13.5336-4.8387 20.3002-7.2608.9149-.3433 1.9004-.5918 2.6771-1.2148.3178-.2504.6288-.6485.473-1.0779-.1625-.3756-.5509-.5838-.9082-.7389-1.0129-.4025-2.1159-.4807-3.1934-.5106-1.6867.0116-3.3887.2205-4.9927.7628-4.8204 1.6947-9.6324 3.4102-14.454 5.0995.0006-2.6841-.0012-5.3664.0012-8.0499 3.4886-1.2281 7.1311-1.9726 10.7993-2.3958Zm19.773 18.49c1.0525-.1319 2.1518.3414 2.7825 1.1976.6884.8831.8144 2.1571.3281 3.166-.4907 1.0468-1.6131 1.7802-2.7752 1.7418-1.0695.0238-2.1055-.601-2.6321-1.5262-.476-.8153-.5326-1.859-.1643-2.7263.4139-1.0009 1.3891-1.732 2.461-1.8529Zm-.2289.5637c-.5892.1344-1.1243.4929-1.4761.9857-.4231.5796-.5832 1.3466-.4225 2.0484.1352.6516.5461 1.2336 1.1006 1.5945.854.5631 2.0514.532 2.8683-.0867.8431-.5973 1.2436-1.7448.9539-2.7384-.179-.6718-.6575-1.2435-1.2601-1.5763-.5357-.2858-1.1748-.3683-1.7641-.2272Z" />
      <path
        d="M76.1622 59.1763c.5484-.0031 1.0987-.0006 1.6478-.0019.3104.0043.6525.077.8723.3158.2215.251.2392.6156.1783.9301-.0341.2076-.2167.3304-.3488.4758.1151.1019.2618.1978.2892.3639.0633.3176-.0037.6523.098.9638.0639.1099.129.221.1339.3529-.2277.0061-.4547.0019-.6824.0055-.1534-.3621-.0389-.7695-.1345-1.1426-.0377-.1521-.1948-.2467-.3445-.2419-.3714-.0158-.7439-.0048-1.114-.0055-.0055.463.0134.9277-.011 1.39-.1935-.003-.3877-.003-.5813.0007-.0097-1.1372-.003-2.2713-.003-3.4066Zm.5953.5398c.0006.3133.0006.6266 0 .9412.3318.0018.6641.0042.9971.0012.1649-.0012.3567-.0324.4638-.1728.1126-.179.1102-.4172.0085-.5992-.0852-.1435-.266-.1575-.4145-.1667-.3518-.0104-.7037-.0043-1.0549-.0037Z" />
    </g>
  </g>
  <defs>
    <clipPath id="a">
      <path fill="#fff" d="M0 0h82v64H0z" />
    </clipPath>
    <clipPath id="b">
      <path fill="#fff" d="M0 0h82v64H0z" />
    </clipPath>
  </defs>
</svg>