<svg xmlns="http://www.w3.org/2000/svg" fill="none" viewBox="0 0 200 200">
  <path fill="currentColor"
    d="M185.886 112.909h.351v-2.297h.831v-.297h-2.014v.297h.832v2.297ZM187.742 110.801l.699 2.109h.348l.699-2.109v2.109h.29v-2.595h-.423l-.728 2.216-.752-2.216h-.484v2.595h.351v-2.109Zm-57.713-4.107V95.9658c0-2.1887 1.021-3.7559 3.2-3.7559h13.438c.083 0 .162-.0816.162-.1625v-2.1346c0-.0186-.006-.0369-.013-.0544h-16.431c-3.562.4528-5.301 2.9348-5.301 6.1074v10.7282c0 2.188-1.05 3.756-3.2 3.756h-14.192c-.08 0-.161.054-.161.162v2.135c0 .088.054.156.118.179h16.113c4.199-.111 6.267-2.792 6.267-6.232Zm-55.2101 6.232h4.7183c.0638-.023.1182-.09.1182-.179v-6.837c0-2.188 1.2362-3.702 3.0372-3.702h19.4344c4.382 0 6.506-2.7022 6.506-6.2422 0-3.1726-1.739-5.6546-5.302-6.1074H74.7316c-.0082.0179-.0222.0319-.0222.0544v2.1346c0 .1081.0537.1625.1611.1625h25.6165c2.178 0 3.199 1.5672 3.199 3.7559 0 2.1889-1.021 3.7562-3.199 3.7562H80.2198c-3.145 0-5.5104 2.676-5.5104 6.188v6.837c-.0003.089.0376.156.1095.179ZM146.75 110.45h25.805c.079 0 .133.055.133.109v2.189c0 .108.082.162.161.162h4.652c.082 0 .16-.054.16-.162v-2.135c0-.082.083-.163.162-.163h4.623c.107 0 .161-.081.161-.161v-2.162c0-.082-.054-.163-.161-.163h-4.623c-.079 0-.162-.081-.162-.162V92.21c0-1.2723-.472-2.0826-1.267-2.3514h-1.346c-.419.1077-.875.3006-1.364.5945L145.89 107.613c-1.075.675-1.452 1.432-1.183 1.999.215.487.831.838 2.043.838Zm4.031-2.864 21.531-13.3223c.135-.1081.405-.0809.405.2162v13.3221c0 .082-.083.162-.162.162h-21.641c-.186 0-.269-.053-.294-.108-.029-.108.025-.189.161-.27ZM28.0288 81.2466c2.0967.3908 4.1575.9492 6.2083 1.5311 1.1732.3407 2.3432.6933 3.5057 1.0687 1.8261.5816 3.6442 1.2402 5.2981 2.2223.7409.4499 1.4524.9581 2.0605 1.578.6589.6439 1.1983 1.4077 1.5941 2.2387.7212 1.5061.9682 3.1886 1.0412 4.8429.0344 1.0794.0322 2.1682-.1693 3.2337-.1675.9259-.4653 1.8389-.9606 2.643-.4374.711-1.0455 1.325-1.7835 1.721-.7079.381-1.5186.563-2.3214.547-1.2176.013-2.399-.376-3.4917-.884-.0197-3.634-.0029-7.2686-.0086-10.9021-.0079-.6575.0369-1.3217-.0956-1.9703-.093-.5025-.2981-1.0089-.6925-1.35-.2617-.2359-.6006-.369-.9413-.4409-.3447-.0655-.7123.0808-.9256.3575-.3547.4431-.4477 1.0315-.4638 1.583-.0029 9.7284.0035 19.4568-.0029 29.1848-2.617-.829-5.2344-1.659-7.8507-2.491-.0029-11.571-.0018-23.1422-.0004-34.7134Zm-11.763 24.6184c3.4119-1.208 6.8203-2.428 10.2337-3.632.0053 1.34 0 2.68.0021 4.021-.0021.181.0097.364-.0132.545-2.6979.956-5.3905 1.929-8.0859 2.892-.3736.141-.757.301-1.0451.586-.1342.134-.2434.331-.17.523.0924.226.3228.349.5354.442.5913.24 1.2377.274 1.8676.303.7022-.011 1.4073-.063 2.0952-.215.4649-.091.9123-.248 1.3554-.415 1.1518-.417 2.3035-.836 3.4571-1.249.0085 1.133.0014 2.267.0035 3.402-.0036.226.0104.454-.0121.68-1.4166.254-2.8501.427-4.2899.45-2.8995.065-5.8057-.384-8.5598-1.29-.9033-.261-1.801-.61-2.5551-1.183-.4152-.322-.7867-.726-.9756-1.223-.15824-.421-.14679-.907.0504-1.313.1901-.406.5222-.726.888-.975.8464-.584 1.7799-1.03 2.7258-1.427.815-.348 1.6604-.619 2.4925-.922Z" />
  <path fill="currentColor"
    d="M43.7185 104.339c.7738-.09 1.5526-.111 2.3303-.139 2.5594.01 5.1317.328 7.5798 1.096.4803.146.9456.335 1.4241.488.8529.311 1.7069.689 2.3898 1.302.4105.375.7641.879.7691 1.455.0243.468-.1879.918-.4918 1.264-.5783.648-1.3428 1.094-2.1105 1.482-.8171.417-1.6955.686-2.5523 1.003-5.2297 1.878-10.4599 3.755-15.6889 5.635-.0007-1.465.0014-2.929-.0007-4.393.0078-.059-.0244-.161.0583-.176 3.9792-1.416 7.9574-2.836 11.9359-4.255.5379-.201 1.1174-.347 1.5741-.712.1868-.147.3697-.38.2781-.632-.0956-.22-.3239-.342-.534-.433-.5956-.236-1.2441-.282-1.8776-.299-.9918.007-1.9925.129-2.9356.447-2.8343.993-5.6635 1.998-8.4985 2.988.0003-1.573-.0007-3.145.0007-4.717 2.0512-.72 4.1929-1.156 6.3497-1.404Zm11.6259 10.836c.6188-.078 1.2652.2 1.636.702.4048.517.4789 1.264.1929 1.855-.2885.613-.9484 1.043-1.6317 1.021-.6288.014-1.238-.352-1.5476-.895-.2799-.477-.3132-1.089-.0966-1.597.2434-.587.8167-1.015 1.447-1.086Zm-.1346.33c-.3464.079-.661.289-.8679.578-.2487.339-.3429.789-.2484 1.2.0795.382.3211.723.6471.935.5022.33 1.2062.311 1.6865-.051.4957-.35.7312-1.023.5608-1.605-.1052-.394-.3865-.729-.7408-.924-.315-.167-.6908-.216-1.0373-.133Z" />
  <path fill="currentColor"
    d="M54.781 115.927c.3225-.002.6461-.001.9689-.001.1825.002.3837.045.5129.185.1303.147.1406.361.1049.545-.0201.122-.1275.194-.2051.279.0676.059.1539.116.17.213.0372.186-.0022.382.0576.565.0376.064.0759.129.0787.207-.1338.003-.2673.001-.4012.003-.0902-.212-.0229-.451-.0791-.67-.0222-.089-.1145-.144-.2025-.141-.2184-.01-.4374-.003-.655-.004-.0032.272.0079.544-.0065.815-.1138-.002-.228-.002-.3418 0-.0057-.666-.0018-1.331-.0018-1.996Zm.3501.316c.0003.184.0003.367 0 .552.195.001.3905.002.5862 0 .097 0 .2098-.018.2728-.101.0662-.105.0647-.244.005-.351-.0501-.084-.1564-.092-.2438-.098-.2068-.006-.4137-.002-.6202-.002Z" />
</svg>