<svg xmlns="http://www.w3.org/2000/svg" fill="none" viewBox="0 0 200 200">
  <path fill="currentColor" fill-rule="evenodd"
    d="M13.7742 113.659c-3.95783-1.132-4.62988-3.467-2.8208-4.813 1.6729-1.248 4.5173-2.18 4.5173-2.18l11.7465-4.196v4.781l-8.4534 3.039c-1.4949.545-1.7237 1.3-.5086 1.698 1.2152.398 3.4112.285 4.9042-.253l4.0541-1.478v4.277c-.2561.048-.5449.093-.8082.137-4.2302.69-8.5646.342-12.6311-1.012Zm24.7826.498 13.1813-4.705c1.4967-.545 1.7256-1.297.5104-1.694-1.2151-.398-3.4111-.286-4.9042.254l-8.7839 3.099v-4.939l.5086-.173c1.9845-.642 4.0305-1.076 6.1048-1.295 3.5691-.394 7.9393.055 11.3686 1.355 3.8671 1.225 4.303 3.028 3.3203 4.271-.9826 1.242-3.3911 2.127-3.3911 2.127l-17.9112 6.446-.0036-4.746Zm1.542-30.6189c6.9404 2.3958 9.2926 5.3783 9.2926 12.0989 0 6.548-4.0215 9.031-9.1291 6.552V89.9772c0-1.4313-.2615-2.75-1.5984-3.1242-1.0244-.3306-1.6601.6267-1.6601 2.058v30.56l-8.1955-2.615V80.4194c3.4856.6503 8.5624 2.1797 11.2905 3.1115v.0072Zm17.6188 33.4489c.006.048.0002.096-.0169.142-.0171.045-.045.085-.0812.117-.0897.056-.1943.082-.2997.077h-.6303v-.653h.6685c.0747-.002.1491.011.2179.04.0484.027.0878.068.113.117s.0352.105.0287.16Zm.4523 1.485c-.018-.011-.0333-.025-.045-.043-.0116-.018-.0192-.038-.0222-.058-.0133-.06-.0194-.121-.0182-.182l-.0127-.296c.0052-.108-.0227-.215-.0799-.307-.0383-.045-.0845-.084-.1362-.113.0681-.044.1268-.101.1725-.169.0624-.106.0932-.228.089-.352.009-.118-.0185-.235-.0786-.336-.0601-.102-.15-.182-.2574-.231-.1363-.056-.2831-.083-.4305-.078h-1.0553v2.307h.3941v-.946h.6212c.0822-.005.1644.007.2416.036.0426.024.0774.06.1002.104.0229.043.0328.092.0288.141l.0181.363c.0009.061.0064.122.0164.182.0055.03.0153.06.0291.087l.0145.028h.4395v-.135l-.029-.002Zm-2.7046-.962c-.0015-.456.1774-.894.4977-1.219.1562-.16.3429-.288.5491-.375.2062-.087.4277-.132.6515-.132.2238 0 .4453.045.6515.132.2062.087.3929.215.5491.375.2368.241.3978.546.4631.878.0653.331.032.674-.0957.987-.1277.313-.3443.582-.6229.773-.2787.191-.6072.296-.9451.303-.2237 0-.4451-.045-.6513-.132-.2062-.086-.393-.213-.5493-.373-.3198-.325-.4987-.762-.4977-1.217Zm1.6983 2.07c.2689.001.5351-.053.7829-.158.2477-.104.4719-.257.6593-.45.383-.391.5974-.917.5974-1.464 0-.548-.2144-1.073-.5974-1.464-.1877-.192-.412-.345-.6597-.449-.2477-.105-.5138-.158-.7825-.158-.4061.008-.801.134-1.136.364-.335.23-.5952.553-.7487.929-.1534.376-.1933.789-.1146 1.187.0786.399.2723.765.5571 1.055.1874.193.4116.346.6594.45.2477.105.5139.159.7828.158Z"
    clip-rule="evenodd" />
  <path fill="currentColor"
    d="M186.291 111.735h-.349v-2.388h-.799v-.334h1.951v.334h-.799l-.004 2.388Zm2.418-.632.746-2.09H190v2.724h-.363v-2.278l-.827 2.276h-.221l-.823-2.276v2.276h-.345v-2.724h.545l.743 2.092Zm-7.064-22.8842h-33.421v9.06s-.102 3.4982 4.224 3.4982h20.429c.802-.006 1.595.155 2.331.474 1.14.509 2.423 1.544 2.423 3.633 0 1.874-.909 2.939-1.808 3.535-.744.48-1.613.733-2.499.726h-25.1v2.543h27.988s6.357-.258 6.357-6.791c0-3.323-1.94-4.9681-3.685-5.7746-1.128-.5181-2.355-.784-3.597-.7792H155.04c-.337.0044-.67-.0748-.97-.2307-.432-.2343-.908-.6993-.908-1.6147v-5.7706h28.483v-2.5084Zm-75.487 20.9172v2.543h14.186c1.696.018 3.341-.578 4.632-1.677.666-.565 1.197-1.272 1.555-2.069.357-.797.532-1.664.512-2.537V94.5869c-.007-.5911.12-1.1761.371-1.711.252-.5349.622-1.0056 1.082-1.3768.653-.5112 1.461-.7836 2.29-.7719h12.368v-2.5084h-14.729s-6.357.1017-6.357 6.8259v10.0933c.011.827-.212 1.64-.643 2.345-.312.522-.758.95-1.291 1.242-.533.292-1.135.435-1.742.416l-12.234-.005ZM73.4056 88.2188v2.5084h25.2838c.7033-.006 1.3996.1434 2.0376.4377 1.003.4704 2.129 1.4386 2.129 3.4021 0 1.9071-1.126 2.8607-2.129 3.333-.649.298-1.3559.4493-2.0703.4432H79.9045c-1.11-.0104-2.2071.2384-3.204.7265-1.5603.7829-3.2949 2.6263-3.2949 5.6673v6.902h4.866v-6.871c-.0032-.447.0775-.891.238-1.308.4014-1.03 1.4167-2.683 3.7907-2.683h18.9087c.636.004 1.269-.081 1.881-.252 1.737-.494 4.632-1.9221 4.632-5.958 0-6.272-6.243-6.3482-6.243-6.3482H73.4056Z" />
</svg>