<svg xmlns="http://www.w3.org/2000/svg" fill="none" viewBox="0 0 200 200">
  <path fill="currentColor"
    d="M84.9919 57.1799c-5.4074.9668-9.7581 4.969-11.1296 10.2303-.4947 1.8999-.5284 3.0128-.4722 17.7512.0337 13.5354.045 13.8501.2698 14.8956 1.2479 5.632 5.25 9.646 10.9385 10.972.742.169 1.6863.203 7.7683.236 6.2955.045 6.9475.034 7.1162-.135.1686-.168.1798-2.338.1798-26.9355 0-18.2346-.0337-26.8235-.1124-26.9809-.1124-.2023-.3035-.2136-6.8913-.2023-5.3513.0112-6.9589.0449-7.6671.1686Zm10.174 26.9809v22.7762l-4.5755-.056c-4.2158-.045-4.6654-.067-5.5086-.281-3.6199-.933-6.3068-3.721-7.06-7.3524-.2473-1.1354-.2473-29.1056-.0112-30.2186.6745-3.159 2.8667-5.7784 5.8233-6.9588 1.484-.5958 2.1698-.6633 6.9814-.6745l4.3506-.0113v22.7764Z" />
  <path fill="currentColor"
    d="M85.9587 68.2533c-.7083.1349-1.7875.6745-2.3609 1.1804-1.1804 1.023-1.765 2.4732-1.675 4.182.0449.8882.1011 1.1242.4609 1.8437.5284 1.0905 1.3265 1.8887 2.417 2.4283.7532.371.9444.416 1.9224.4497.8881.0337 1.2029 0 1.7987-.2024 2.4396-.8206 3.9123-3.1927 3.4963-5.621-.4834-2.8892-3.2264-4.8228-6.0594-4.2607Zm19.1793-11.1746c-.045.0337-.079 12.2201-.079 27.0821 0 24.5192.011 27.0032.18 27.0712.303.112 9.027.067 10.106-.045 4.565-.517 8.589-3.294 10.781-7.42.282-.528.653-1.417.844-1.967.708-2.114.685-1.552.685-17.7067 0-12.8946-.022-14.817-.179-15.6377-1.113-5.8571-5.577-10.2752-11.445-11.287-.787-.1349-2.001-.1686-5.913-.1686-2.698 0-4.947.0337-4.98.0787Zm12.006 24.4852c1.754.4609 3.193 1.7987 3.777 3.5075.371 1.0567.36 2.6081-.011 3.5749-.686 1.7763-2.035 3.0242-3.766 3.4851-2.81.7307-5.801-.9668-6.621-3.7549-.248-.8544-.237-2.2933.044-3.1702.844-2.7543 3.767-4.3732 6.577-3.6424Zm18.752 37.8741c-1.743.574-2.777 2.249-2.485 4.07.18 1.169.855 2.091 1.889 2.619 1.405.697 2.9.517 4.025-.494.843-.765 1.203-1.563 1.203-2.698 0-1.068-.315-1.867-1.024-2.575-.888-.888-2.484-1.293-3.608-.922Zm1.99 1.642c.674.348 1.045.91 1.101 1.675.068 1-.359 1.72-1.248 2.091-1.506.629-3.215-.821-2.788-2.384.18-.697.484-1.09 1.046-1.371.607-.292 1.315-.304 1.889-.011Zm-77.3456 1.855v3.44l.7082-.034.6971-.034.0562-2.17.0562-2.169 1.6301 2.192 1.6301 2.203.6745-.022.6745-.034v-6.745l-.697-.034-.7082-.033v4.44l-1.6526-2.215-1.6638-2.214h-1.4053v3.429Zm11.242 0v3.428h1.4615v-6.857h-1.4615v3.429Zm6.5766-3.283c-.0337.079-.0449 1.608-.0337 3.395l.0337 3.26.7083.034.697.034v-4.553l1.6863 2.27 1.6863 2.271h1.349v-6.857h-1.4614l-.0225 2.158-.0337 2.159-1.6189-2.159-1.6076-2.158h-.6633c-.4384 0-.6857.045-.7195.146Zm10.9273-.068c-.045.034-.0787.371-.0787.731v.652h2.2484v5.396h1.4615v-5.396h2.136v-1.461h-2.8443c-1.5739 0-2.8892.033-2.9229.078ZM100 122.935v3.428h5.284v-1.349h-3.935v-1.574h3.597v-1.236h-3.597v-1.349l1.945-.023 1.934-.033.033-.652.034-.641H100v3.429Zm10.849-3.283c-.034.079-.045 1.608-.034 3.395l.034 3.26.708.034.697.034v-4.553l1.686 2.27 1.686 2.271h1.349v-6.857h-1.461l-.023 2.158-.033 2.159-1.619-2.159-1.608-2.158h-.663c-.438 0-.686.045-.719.146Zm11.86 3.271v3.44h1.495c1.731 0 2.552-.168 3.294-.685 2.192-1.507 1.855-4.733-.607-5.869-.461-.213-.776-.247-2.35-.281l-1.832-.045v3.44Zm3.676-1.742c.944.438 1.349 1.641.877 2.642-.36.742-1.091 1.079-2.372 1.079h-.832v-3.935h.933c.663 0 1.057.068 1.394.214Zm-7.071 8.229c-1.563.202-2.957.933-4.104 2.158-2.507 2.699-2.428 6.802.192 9.41.966.978 1.843 1.484 3.102 1.799 2.069.528 4.16.112 5.869-1.181.663-.494 1.529-1.461 1.461-1.63-.022-.045-.483-.461-1.034-.944l-.989-.866-.304.394c-1.45 1.9-4.384 2.102-6.082.404-.247-.247-.584-.708-.753-1.034-.281-.539-.315-.708-.315-1.72 0-.967.034-1.203.281-1.686.832-1.72 2.889-2.653 4.677-2.136.832.236 1.619.731 2.113 1.326l.383.461.494-.404c.27-.214.742-.63 1.046-.9l.562-.506-.439-.539c-1.461-1.776-3.822-2.698-6.16-2.406Zm-55.6033.438c-2.6757.709-4.0584 2.496-3.4626 4.52.4272 1.495 1.8437 2.226 5.6098 2.9 2.5294.45 3.2714.821 3.2714 1.619 0 .551-.326.956-1.0342 1.282-.6071.281-.742.303-2.2709.303-1.81 0-2.5183-.146-3.8561-.753-.4159-.191-.7757-.326-.7981-.304-.135.169-1.2029 2.159-1.1692 2.181.1124.124 1.9111.776 2.6531.978 1.2366.326 3.8785.405 5.2276.158 2.5182-.472 3.766-1.63 3.8785-3.575.0899-1.608-.3598-2.44-1.7426-3.159-.9893-.517-1.8437-.765-4.0246-1.203-1.8999-.371-2.4395-.551-2.833-.922-.3485-.326-.3485-.911.0112-1.27.8095-.81 3.7099-.843 5.9583-.056.371.123.7083.191.7532.146.0787-.09.8882-1.99.8882-2.103 0-.101-1.7201-.607-2.6869-.787-1.3041-.247-3.3276-.224-4.3731.045Zm9.5782.079c.0337.113.8206 2.912 1.7537 6.217.9331 3.305 1.7201 6.104 1.7538 6.206.0562.179.2361.202 1.6188.202h1.5627l.1237-.427c1.1129-4.025 2.2371-7.802 2.2933-7.667.0338.09.5621 1.933 1.1692 4.103l1.1017 3.935 1.5739.033 1.5739.034 1.7875-6.273c.978-3.451 1.7987-6.34 1.8324-6.419.0338-.101-.281-.135-1.3715-.135h-1.4053l-.1573.528c-.09.304-.6296 2.327-1.2029 4.497-.5846 2.181-1.0793 3.969-1.1242 3.969-.0338 0-.5621-1.709-1.1692-3.8-.6071-2.08-1.2029-4.104-1.3266-4.497l-.2136-.708-1.1467.033-1.1467.034-1.3153 4.497c-.7195 2.473-1.3153 4.519-1.3265 4.553-.0113.034-.5172-1.787-1.113-4.047-.6071-2.26-1.1692-4.317-1.2366-4.587l-.1349-.472h-1.4053c-1.2928 0-1.4052.011-1.349.191Zm21.3149 6.217v6.408h2.9229l-.0225-6.386-.0337-6.374-1.4277-.034-1.439-.033v6.419Zm5.9582-5.003v1.406h4.047v10.005h2.811v-10.005l2.001-.023 1.99-.034v-2.698l-5.419-.034-5.43-.022v1.405Zm28.218 5.003v6.408h2.698v-5.059h5.958v5.059h2.698l-.022-6.386-.034-6.374-1.315-.034-1.327-.033v5.07h-5.958v-5.059h-2.698v6.408Z" />
</svg>