<svg xmlns="http://www.w3.org/2000/svg" fill="none" viewBox="0 0 82 64">
  <g clip-path="url(#a)">
    <path fill="currentColor"
      d="M41 25.6638c9.6559 7.3325 26.015 25.3449 21.0673 30.4458C56.4015 61.0511 49.0598 64 41 64c-8.0599 0-15.4813-2.9489-21.0673-7.8904-5.0275-5.1009 11.4114-23.1133 20.9875-30.3661 0-.0797.0798-.0797.0798-.0797ZM57.6783 4.70237C52.8105 1.75342 47.4638 0 41 0c-6.4638 0-11.8105 1.75342-16.6783 4.70237-.0798 0-.0798.0797-.0798.1594s.0798.0797.1596.0797c6.2244-1.35492 15.6409 3.98505 16.5187 4.54296h.1596c.8778-.55791 10.2943-5.89788 16.5187-4.54296.0798 0 .1596 0 .1596-.0797s0-.1594-.0798-.1594ZM18.5761 9.16563c-.0798 0-.0798.0797-.1596.0797C12.591 15.0635 9 23.1133 9 31.9601c0 7.2528 2.4738 14.0274 6.5436 19.3674 0 .0797.0798.0797.1596.0797s.0798-.0797 0-.1594c-2.4738-7.5716 10.0549-25.8231 16.5187-33.4745l.0798-.0797c0-.0797 0-.0797-.0798-.0797-9.8154-9.72349-13.0872-8.68738-13.6458-8.44827Zm31.202 8.36857-.0798.0797s-.0001.0797.0798.0797c6.4638 7.6514 18.9127 25.9029 16.5187 33.4745v.1594c.0798 0 .1596 0 .1596-.0797C70.5262 45.9078 73 39.1332 73 31.8804c0-8.8468-3.591-16.8966-9.4963-22.71477-.0798-.0797-.0798-.0797-.1596-.0797-.4788-.15941-3.7506-1.19552-13.566 8.44827Z" />
  </g>
  <defs>
    <clipPath id="a">
      <path fill="#fff" d="M0 0h64v64H0z" transform="translate(9)" />
    </clipPath>
  </defs>
</svg>