<svg xmlns="http://www.w3.org/2000/svg" fill="none" viewBox="0 0 200 200">
  <path fill="currentColor"
    d="M73.1695 142.394h-4.9841l-8.5703-11.809-8.631 11.809H46l11.0623-15.201-10.1506-13.99h4.9841l7.7193 10.598 7.7193-10.598h4.9841l-10.2113 13.99 11.0623 15.201Zm25.893-8.297c0 2.544-.8509 4.603-2.5528 6.057-1.7019 1.453-4.1332 2.24-7.2938 2.24H75.54v-13.021h-6.5645l2.7352-3.755H75.54v-12.415h13.1288c2.9784 0 5.2273.727 6.8076 2.12 1.5803 1.392 2.3705 3.27 2.3705 5.511 0 2.786-1.2764 4.966-3.8293 6.359 1.6412.606 2.8568 1.575 3.7077 2.725.9118 1.151 1.3372 2.605 1.3372 4.179Zm-19.0855-8.418h8.3879c1.7019 0 2.9783-.364 3.8293-1.151.8509-.727 1.2764-1.877 1.2764-3.391 0-1.272-.4255-2.302-1.3372-3.029-.8509-.726-2.1274-1.09-3.7685-1.09H79.977v8.661Zm14.5877 8.297c0-1.514-.4863-2.725-1.398-3.452-.9117-.787-2.3097-1.151-4.1332-1.151H79.977v9.145h8.9958c1.7626 0 3.1606-.424 4.1331-1.15.9725-.788 1.4588-1.938 1.4588-3.392Zm34.6453-6.177c0 2.24-.304 4.36-.972 6.177-.669 1.817-1.641 3.452-2.918 4.845-1.337 1.393-2.856 2.483-4.558 3.149-1.702.727-3.647 1.03-5.835 1.03-2.128 0-4.134-.363-5.835-1.03-1.702-.726-3.222-1.756-4.559-3.149-1.337-1.393-2.31-3.028-2.978-4.845-.669-1.817-.973-3.937-.973-6.177 0-2.241.304-4.361.973-6.178.668-1.817 1.641-3.513 2.978-4.906 1.276-1.392 2.796-2.422 4.559-3.149 1.701-.666 3.707-1.029 5.835-1.029 2.127 0 4.072.363 5.835 1.029 1.702.666 3.282 1.757 4.558 3.149 1.277 1.393 2.31 3.089 2.918 4.906.608 1.817.972 3.876.972 6.178Zm-24.008 0c0 3.452.911 6.177 2.674 8.176 1.763 1.998 4.072 3.028 7.051 3.028 2.917 0 5.288-1.03 7.05-3.028 1.763-1.999 2.614-4.724 2.614-8.176 0-3.453-.851-6.238-2.614-8.237-1.762-1.999-4.133-3.028-7.05-3.028-2.918 0-5.288 1.029-7.051 3.028-1.763 2.059-2.674 4.784-2.674 8.237Zm38.11-.606 10.211-13.99h-4.984l-7.719 10.598-7.72-10.598h-4.984l10.212 13.99-11.063 15.201h4.984l8.571-11.809 8.631 11.809h4.984l-11.123-15.201Zm-43.095-50.6916c7.355 5.5718 19.815 19.2592 16.047 23.1352-4.316 3.7554-9.908 5.9954-16.047 5.9954-6.1386 0-11.7913-2.24-16.046-5.9954-3.8293-3.876 8.6918-17.5634 15.986-23.0746 0-.0606.06-.0606.06-.0606Zm12.704-15.9282C109.213 58.3324 105.141 57 100.217 57c-4.9229 0-8.9953 1.3324-12.703 3.5732-.0608 0-.0608.0606-.0608.1212 0 .0605.0608.0605.1216.0605 4.741-1.0295 11.9132 3.0282 12.5822 3.4521h.121c.669-.4239 7.841-4.4816 12.582-3.4521.061 0 .122 0 .122-.0605 0-.0606 0-.1212-.061-.1212Zm-29.7833 3.3916c-.0608 0-.0608.0606-.1216.0606-4.437 4.4211-7.1722 10.538-7.1722 17.2605 0 5.5113 1.8842 10.6592 4.9841 14.7169 0 .0606.0608.0606.1216.0606.0607 0 .0607-.0606 0-.1211-1.8843-5.7536 7.6585-19.6226 12.5818-25.4367l.0608-.0605c0-.0606 0-.0606-.0608-.0606-7.4762-7.3887-9.9682-6.6014-10.3937-6.4197Zm23.7653 6.3591-.06.0606s0 .0606.06.0606c4.924 5.8141 14.406 19.6831 12.582 25.4366v.1211c.061 0 .122 0 .122-.0605 3.1-4.0578 4.984-9.2057 4.984-14.7169 0-6.7226-2.735-12.8395-7.233-17.2606-.061-.0606-.061-.0606-.122-.0606-.364-.1211-2.856-.9084-10.333 6.4197Z" />
</svg>