<svg xmlns="http://www.w3.org/2000/svg" fill="none" viewBox="0 0 43 64">
  <path fill="#fff" d="M42.6674 0H.00073242v64H42.6674V0Z" />
  <path fill="#1A1818" d="M42.0474.687124V63.3157H.620768V.687124H42.0474Z" />
  <path fill="#fff"
    d="M2.70474 2.91304H39.664V13.2983H2.70474V2.91304ZM2.6885 15.5623h36.9804v38.1774H2.6885V15.5623ZM2.69556 61.0573v-5.069h7.42414v1.1864H5.67992v.7245h3.75906v1.1822H5.67992v.7937h4.61428v1.1822H2.69556ZM16.6005 57.4642c-.0368-.089-.0958-.1672-.1713-.227-.0756-.0598-.1651-.0993-.2602-.1148-.2506-.0689-.5099-.1008-.7698-.0946-.6567 0-.9505.1073-.9505.2966 0 .7492 5.2357.2782 5.2357 2.1221 0 1.1744-1.7598 1.7471-4.2604 1.7471-2.4011 0-3.9681-.7803-4.0317-1.6949h2.8558c.0468.0997.1156.1874.2012.2565.0856.0692.1859.1179.2932.1425.2739.0874.5599.1306.8474.1279.7465 0 1.2415-.1321 1.2415-.3708 0-.769-5.2392-.2422-5.2392-2.1736 0-1.0777 1.6694-1.6172 3.9469-1.6172 2.5267 0 3.6778.7161 3.896 1.6016l-2.8346-.0014ZM24.1518 58.1866h1.173c.9222 0 1.418-.1341 1.418-.483s-.5056-.5289-1.2005-.5289h-1.3905v1.0119Zm0 1.1052v1.7655h-2.9837v-5.069h4.3007c3.0296 0 4.031.4646 4.031 1.4491 0 .5861-.4668 1.0727-1.5289 1.2429.959.1935 1.5416.3128 1.5416 1.3354 0 .6603-.0389.8891.3149.8891v.1525h-3.0232c-.1183-.2797-.1695-.5832-.1497-.8863 0-.6652-.202-.8792-1.5925-.8792h-.9102ZM34.3125 57.1754v.8474h1.2428c.5947 0 1.0254-.154 1.0254-.4428 0-.3969-.5868-.4053-1.2146-.4053l-1.0536.0007Zm0 1.7654v.9358h1.3022c.7393 0 1.293-.0862 1.293-.4647 0-.4428-.6921-.4711-1.6461-.4711h-.9491Zm-2.9802 2.1186v-5.069h4.3502c2.0479 0 3.6799.2754 3.6799 1.2796 0 .5226-.6087.9032-1.1878 1.0995.9851.1413 1.5127.6172 1.5127 1.161 0 1.1299-1.5536 1.5289-3.9187 1.5289h-4.4363Z" />
  <path fill="#1A1818"
    d="M23.5226 44.358h-1.5925v.8764h1.5925v1.5451h.9039v-1.5451h1.5967v-.8764h-1.5967v-1.5494h-.9039v1.5494Zm-2.536-.3926c0-3.0805-1.6503-4.9038-4.389-4.9038-3.7004 0-4.6121 2.5288-4.6121 4.9038 0 2.901 1.4555 4.9037 4.502 4.9037s4.4991-2.0027 4.4991-4.9037ZM5.49278 24.3869l22.39542-6.6876 2.2429 7.093-11.2179 3.3473.9181 2.8996 10.3655-3.091 2.2393 7.0937-10.3591 3.0889.9675 3.0564 11.5879-3.4603 2.2471 7.0873-22.762 6.7978-8.62472-27.2251Zm.85379 17.9373c1.01005-.2507 1.95736-.7075 2.78239-1.3418v7.415h2.10094v-9.2977H9.18193c-.82999.6778-1.79859 1.1652-2.83748 1.4279v1.8001" />
  <path fill="#1A1818"
    d="M13.9191 43.8785c.0162-3.1073 1.2485-3.8318 2.6609-3.8276 1.579.0078 2.4773 1.1878 2.4667 3.9145-.0099 1.7012-.4689 3.7865-2.4921 3.7745-1.9823-.0077-2.6468-1.5903-2.6355-3.8614ZM3.74637 11.0547V5.16296h2.30854v.90746H4.6284v1.45334h1.3114v.90605H4.6284v1.72239h1.46959v.9039l-2.35162-.0014ZM6.33668 5.16155h.91805l.65676 4.28447h.012l.73727-4.28447h.87426L8.41288 11.0547H7.37619L6.33668 5.16155ZM9.92908 11.0547V5.16296h2.30852v.90746h-1.4244v1.45334h1.3114v.90605h-1.3114v1.72239h1.471v.9039l-2.35512-.0014ZM13.7284 11.0547h-.8849V5.16296h1.6342c.1441-.0031.2866.0315.4133.10036.1267.06887.2333.16962.3091.29229.2012.3485.2949.74877.269 1.15038.0089.32717-.0523.65245-.1793.95407-.0534.12545-.1365.23602-.2422.32215-.1057.08613-.2308.14523-.3644.17218v.01483c.0459.01271.1129.02754.1977.05085.0968.02584.1853.07618.257.14618.0964.09588.1709.21153.2183.33897.0705.20002.1021.41167.0932.62357 0 .09251 0 .22386.0042.39264.0042.16878.0057.34317.0148.52257.0092.1794.017.3453.0311.4943.0063.1071.0229.2132.0494.3171h-.8664c-.059-.1825-.0898-.3731-.0911-.5649V9.41635c.0007-.13972-.0186-.27884-.0573-.41312-.033-.1108-.0984-.20918-.1878-.28247-.1122-.07828-.2477-.1159-.3842-.10664h-.2281l-.0056 2.44058Zm0-3.3445h.3926c.0804.00193.1584-.02744.2175-.08192.0621-.05936.1104-.1317.1413-.21186.0371-.09046.062-.18545.0741-.28248.0124-.09767.0188-.19602.0191-.29448.0175-.20726-.0244-.41523-.1208-.59955-.0352-.05508-.0841-.1001-.1419-.13067-.0578-.03057-.1225-.04565-.1879-.04376h-.3926l-.0014 1.64472ZM16.8095 9.01453l-1.1087-3.85298h.9675l.6313 2.48862.6751-2.48862h.9018l-1.1836 3.85298v2.04017h-.8834V9.01453ZM20.7034 11.1515c-.3025.0196-.6018-.0718-.8417-.2571-.2075-.1822-.3587-.4198-.4358-.685-.094-.31702-.1472-.64475-.1582-.97524-.0141-.3644-.0225-.7408-.0225-1.12991 0-.38911.0084-.76975.0225-1.13414.011-.32911.0642-.65544.1582-.97102.0785-.26352.2295-.49966.4358-.68147.2494-.16681.5427-.25585.8428-.25585.3001 0 .5934.08904.8428.25585.2056.18198.3559.41813.4336.68147.0956.31522.1488.64176.1582.97102.0163.36439.0226.74291.0226 1.13414 0 .39123-.0063.76198-.0226 1.12991-.0094.33064-.0626.65858-.1582.97524-.0763.265-.2267.5026-.4336.685-.2406.1855-.5407.2769-.8439.2571Zm0-.8807c.0562.0026.1123-.0073.1642-.029.0519-.0218.0984-.0548.136-.0967.0869-.1142.1453-.24764.1702-.38907.0447-.2217.07-.44689.0755-.673.0118-.274.0179-.59908.0184-.97525.0005-.37616-.0057-.70077-.0184-.97384-.0055-.22657-.0308-.45223-.0755-.67441-.0246-.14066-.083-.27324-.1702-.38628-.0386-.04069-.085-.0731-.1365-.09525-.0515-.02214-.1069-.03357-.163-.03357-.056 0-.1115.01143-.1629.03357-.0515.02215-.0979.05456-.1365.09525-.0873.11276-.1451.24554-.1681.38628-.0456.2221-.0715.44777-.0776.67441-.0118.27542-.0175.60003-.017.97384.0005.37381.0061.6989.017.97525.0061.22618.032.45138.0776.673.0234.14151.0811.27517.1681.38907.0376.0416.0838.0744.1354.0961.0516.0217.1074.0318.1633.0296ZM22.8722 11.0547V5.16296h1.1941l1.1243 4.08038h.012V5.16296h.8255v5.89174h-1.1666L23.709 6.74695h-.0127v4.30775h-.8241ZM26.7731 11.0547V5.16296h2.3072v.90746H27.658v1.45334h1.3114v.90605H27.658v1.72239h1.4682v.9039l-2.3531-.0014ZM30.9206 6.09443c.151-.12074.2926-.25271.4237-.39476.1434-.15504.2664-.32781.3658-.51411h.7818v5.86704h-.8835V6.53933c-.102.12551-.2129.24351-.3319.3531-.1193.10522-.2387.20762-.358.30225l.0021-1.10025ZM34.5342 5.11071c.2135-.00936.4252.04338.6094.15183.1725.12337.2992.30045.3602.50351.0955.3004.1522.61176.1688.92653.0282.37922.0452.84742.0452 1.41238 0 .45996-.0104.87615-.0311 1.24854-.0113.32287-.0604.64331-.1462.9548-.0622.232-.1867.4425-.3601.6087-.187.1396-.414.215-.6473.215-.2332 0-.4603-.0754-.6472-.215-.1726-.1662-.296-.3769-.3566-.6087-.0877-.31121-.1379-.63172-.1497-.9548-.0184-.37216-.029-.78811-.029-1.24854 0-.56025.0146-1.03104.0438-1.41238.0154-.31502.0726-.6266.1702-.92653.0603-.20283.1863-.37992.358-.50351.1846-.1095.3973-.1623.6116-.15183Zm0 .85802c-.0381-.00256-.0762.00354-.1115.01785-.0354.01432-.067.03646-.0926.06477-.0609.09513-.0975.20377-.1066.31638-.0278.21616-.0417.43387-.0417.65181 0 .28248-.0042.64758-.0042 1.10095 0 .44279 0 .80436.0084 1.08471 0 .21957.0161.43883.0481.65606.0089.11483.0455.22574.1066.32344.0229.029.0524.0521.0861.0675.0336.0153.0705.0225.1074.0208.0368.0013.0734-.006.1068-.0214.0335-.0153.0629-.0382.086-.0669.0615-.0976.0988-.20851.1087-.32344.0312-.21733.0474-.43652.0488-.65606.0042-.28247.0084-.64192.0084-1.08471 0-.45408 0-.8213-.0063-1.10095.0011-.21797-.0128-.43576-.0417-.65181-.0075-.11325-.045-.22245-.1087-.31638-.0255-.0279-.0568-.04979-.0917-.06408-.0349-.01429-.0726-.02063-.1103-.01854ZM36.9769 6.30558h.6497V7.9164h.9887v.90534h-.9887V10.429h-.6497V8.82174h-.9964V7.9164h.9964V6.30558Z" />
</svg>