<svg width="43" height="64" viewBox="0 0 43 64" fill="none" xmlns="http://www.w3.org/2000/svg">
  <path d="M42.6662 0H-0.000732422V64H42.6662V0Z" fill="white" />
  <path d="M42.0468 0.68641V63.3129H0.620003V0.68641H42.0468Z" fill="#1A1818" />
  <path d="M2.70395 2.9123H39.6635V13.2974H2.70395V2.9123Z" fill="white" />
  <path d="M2.68771 15.5622H39.6684V53.7399H2.68771V15.5622Z" fill="white" />
  <path
    d="M2.69548 61.0566V55.9876H10.1189V57.174H5.67769V57.8986H9.4367V59.0807H5.67769V59.8745H10.2919V61.0566H2.69548Z"
    fill="white" />
  <path
    d="M16.5953 57.4643C16.5594 57.3748 16.5009 57.2961 16.4255 57.236C16.3501 57.1758 16.2605 57.1362 16.1652 57.1211C15.914 57.0532 15.6543 57.0218 15.3941 57.0278C14.7394 57.0278 14.445 57.1345 14.445 57.3237C14.445 58.073 19.6799 57.6062 19.6799 59.4472C19.6799 60.6202 17.9208 61.1943 15.4202 61.1943C13.0192 61.1943 11.4522 60.4126 11.3886 59.4995H14.2444C14.2911 59.5992 14.3599 59.687 14.4455 59.7563C14.5312 59.8255 14.6314 59.8744 14.7387 59.8992C15.0126 59.9868 15.2987 60.03 15.5861 60.027C16.3312 60.027 16.8269 59.895 16.8269 59.6549C16.8269 58.8865 11.5877 59.4133 11.5877 57.4812C11.5877 56.405 13.2586 55.8641 15.536 55.8641C18.0627 55.8641 19.2131 56.5808 19.4313 57.4671L16.5953 57.4643Z"
    fill="white" />
  <path
    d="M24.15 58.1867H25.3244C26.2425 58.1867 26.7417 58.0525 26.7417 57.703C26.7417 57.3534 26.2375 57.174 25.5412 57.174H24.1507L24.15 58.1867ZM24.15 59.2912V61.0566H21.1678V55.9876H25.4664C28.4973 55.9876 29.498 56.4509 29.498 57.436C29.498 58.0222 29.0326 58.5087 27.9691 58.6796C28.9295 58.8724 29.5107 58.9925 29.5107 60.015C29.5107 60.6739 29.4733 60.9034 29.8256 60.9034V61.0573H26.8003C26.6828 60.7772 26.6315 60.4736 26.6506 60.1704C26.6506 59.5051 26.4487 59.2912 25.0582 59.2912H24.15Z"
    fill="white" />
  <path
    d="M34.3134 57.174V58.0215H35.5563C36.1509 58.0215 36.5831 57.8689 36.5831 57.5787C36.5831 57.1818 35.9949 57.1733 35.3671 57.1733L34.3134 57.174ZM34.3134 58.9395V59.8738H35.6156C36.3543 59.8738 36.9094 59.7876 36.9094 59.4091C36.9094 58.9663 36.2159 58.9395 35.2632 58.9395H34.3134ZM31.3333 61.058V55.9891H35.6841C37.7321 55.9891 39.3633 56.2645 39.3633 57.2673C39.3633 57.7898 38.7546 58.1705 38.1755 58.3682C39.1607 58.5094 39.6882 58.9854 39.6882 59.5292C39.6882 60.659 38.1346 61.058 35.7682 61.058H31.3333Z"
    fill="white" />
  <path
    d="M15.3051 38.7123L15.2189 27.6181L21.2603 37.2385L15.3051 38.7123ZM29.4881 34.5084C29.0159 34.7377 28.5213 34.9178 28.0122 35.0458C24.2087 35.9885 21.5068 33.9208 20.4602 30.3023C19.6912 27.6464 20.1516 25.3096 21.9517 23.8718L17.5691 17.6899L7.98055 20.069L6.04349 51.5648L15.2811 49.2782L15.2486 45.195L24.6408 42.8597L26.866 46.4033L36.2583 44.0729L29.4881 34.5084Z"
    fill="#1A1818" />
  <path
    d="M22.7659 29.7381C23.4869 32.2182 24.9431 34.096 27.5468 33.4463C27.8717 33.3661 28.1855 33.2461 28.4811 33.0889L23.0526 25.4318C22.2377 26.4868 22.2794 28.0687 22.7659 29.7395"
    fill="#1A1818" />
  <path
    d="M24.8972 24.3125C27.5101 23.6642 28.9641 25.5405 29.6802 28.0242C30.3037 30.166 30.1992 32.1667 28.4796 33.0903L29.4838 34.5119C32.1123 33.2132 32.8834 30.5502 31.9866 27.4501C30.9365 23.8429 28.2395 21.7723 24.4304 22.7186C23.5293 22.9242 22.6826 23.3197 21.9467 23.8789L23.0484 25.4367C23.513 24.8591 24.1655 24.4628 24.8922 24.3167"
    fill="#1A1818" />
  <path
    d="M3.7371 11.0532L4.69821 5.16291H5.65156L6.58937 11.0532H5.8274L5.63814 9.74675H4.64737L4.45175 11.0532H3.7371ZM5.13393 6.29704H5.12333L4.79425 8.8393H5.48419L5.13393 6.29704Z"
    fill="#1A1818" />
  <path
    d="M6.94882 5.1622H8.1571C8.36691 5.15307 8.57244 5.22343 8.73264 5.35923C8.89505 5.51547 9.01238 5.71257 9.07231 5.92982C9.16375 6.22822 9.21969 6.53636 9.23897 6.84786C9.26816 7.21037 9.28276 7.61925 9.28276 8.0745V8.60908C9.28276 8.81317 9.27428 9.02644 9.25875 9.24959C9.24155 9.46974 9.21209 9.68877 9.17047 9.90564C9.13102 10.1054 9.06549 10.2992 8.97557 10.4819C8.89515 10.6422 8.78009 10.7826 8.63872 10.8929C8.49098 11.003 8.31017 11.0595 8.12603 11.0532H6.94882V5.1622ZM7.67336 10.1479H8.02292C8.07237 10.149 8.12149 10.1397 8.16711 10.1206C8.21273 10.1015 8.25383 10.073 8.28774 10.037C8.3697 9.93436 8.42501 9.81307 8.44875 9.6839C8.49257 9.47603 8.51879 9.26484 8.52714 9.05257C8.54126 8.7934 8.54974 8.48056 8.54974 8.11052C8.54974 7.83864 8.54974 7.57947 8.54126 7.33372C8.53918 7.11661 8.52125 6.89994 8.48759 6.68544C8.46575 6.5274 8.41398 6.37497 8.33506 6.23631C8.30676 6.18503 8.26493 6.1425 8.21412 6.11336C8.16332 6.08422 8.10549 6.06959 8.04694 6.07106H7.67407L7.67336 10.1479Z"
    fill="#1A1818" />
  <path
    d="M12.1965 5.1622V9.33928C12.1972 9.55936 12.1771 9.77902 12.1364 9.99532C12.102 10.1981 12.0355 10.394 11.9394 10.5758C11.8535 10.7405 11.7302 10.8828 11.5793 10.991C11.4153 11.1011 11.2208 11.1567 11.0235 11.1499C10.8445 11.1591 10.6664 11.1182 10.5093 11.0317C10.3523 10.9453 10.2224 10.8167 10.1344 10.6605C9.92189 10.2538 9.8217 9.79767 9.84417 9.33928V5.1622H10.5687V9.25807C10.5519 9.52277 10.5933 9.78794 10.6902 10.0349C10.7159 10.1052 10.7633 10.1656 10.8256 10.2072C10.8879 10.2489 10.9618 10.2696 11.0366 10.2665C11.1115 10.2633 11.1834 10.2364 11.242 10.1897C11.3006 10.143 11.3427 10.0789 11.3625 10.0066C11.4481 9.76579 11.486 9.51057 11.474 9.25524V5.15938L12.1965 5.1622Z"
    fill="#1A1818" />
  <path d="M12.7918 11.0532V5.1622H13.5142V10.0744H14.5982V11.0525L12.7918 11.0532Z" fill="#1A1818" />
  <path d="M16.697 5.1622V6.14168H15.8926V11.0532H15.1702V6.14168H14.3637V5.1622H16.697Z"
    fill="#1A1818" />
  <path
    d="M19.1778 9.4452C19.1885 9.75176 19.1516 10.0581 19.0683 10.3534C19.0165 10.5448 18.9197 10.7211 18.7859 10.8675C18.6798 10.9793 18.5441 11.0587 18.3946 11.0963C18.2575 11.1309 18.1166 11.1487 17.9752 11.1492C17.7818 11.1592 17.5906 11.1048 17.4314 10.9946C17.2882 10.887 17.1777 10.7418 17.1122 10.5751C17.0346 10.3788 16.9856 10.1724 16.9667 9.96213C16.9436 9.71946 16.9375 9.47547 16.9484 9.23194H17.6722C17.6722 9.37317 17.6722 9.50594 17.6807 9.63305C17.6853 9.7443 17.7023 9.85468 17.7315 9.96213C17.7504 10.0468 17.7924 10.1246 17.853 10.1867C17.884 10.2152 17.9204 10.2371 17.9601 10.2512C17.9998 10.2653 18.0419 10.2712 18.0839 10.2686C18.1428 10.2696 18.2005 10.2525 18.2494 10.2197C18.2982 10.1869 18.3359 10.1399 18.3572 10.085C18.424 9.93232 18.4549 9.76636 18.4476 9.59986C18.4525 9.44078 18.4155 9.2832 18.3403 9.14296C18.2661 9.00868 18.1754 8.88414 18.0705 8.77221C17.961 8.65499 17.8459 8.53917 17.7209 8.41912C17.5895 8.29606 17.4712 8.15975 17.3679 8.01236C17.2539 7.8441 17.1627 7.66149 17.0967 7.4693C17.0204 7.22658 16.9844 6.973 16.99 6.71863C16.9891 6.50279 17.0071 6.28729 17.0437 6.07459C17.0744 5.89005 17.137 5.71226 17.2287 5.54919C17.3134 5.40254 17.4352 5.28076 17.5818 5.1961C17.7502 5.10341 17.9406 5.05802 18.1326 5.06475C18.2897 5.05627 18.446 5.09135 18.5843 5.16613C18.7226 5.2409 18.8376 5.35245 18.9165 5.48846C19.1128 5.90818 19.1898 6.37387 19.139 6.83444H18.4328C18.4328 6.72499 18.4285 6.61835 18.4208 6.51101C18.4139 6.41548 18.3975 6.32086 18.372 6.22854C18.3526 6.15436 18.3182 6.08492 18.2711 6.02445C18.2498 5.99905 18.2231 5.97884 18.1929 5.96537C18.1626 5.95191 18.1297 5.94555 18.0966 5.94677C18.0406 5.94577 17.9854 5.96003 17.9369 5.98802C17.8884 6.01601 17.8484 6.05668 17.8212 6.10566C17.7456 6.24984 17.7114 6.41214 17.7224 6.57457C17.7174 6.73906 17.7544 6.90211 17.8297 7.04842C17.9025 7.18008 17.9939 7.30065 18.1009 7.40645C18.2096 7.5152 18.3257 7.6256 18.449 7.73765C18.5814 7.85379 18.6999 7.98483 18.8021 8.12817C18.9194 8.29321 19.0108 8.47513 19.0733 8.6677C19.1509 8.9193 19.1862 9.18204 19.1778 9.4452Z"
    fill="#1A1818" />
  <path
    d="M21.9178 11.1499C21.7915 11.1581 21.6649 11.1395 21.5463 11.0952C21.4278 11.0508 21.3199 10.9819 21.23 10.8929C21.0549 10.6991 20.9321 10.4638 20.8733 10.2093C20.7961 9.88922 20.7532 9.56182 20.7455 9.23264C20.7307 8.86967 20.7265 8.49398 20.7265 8.1084C20.7265 7.72282 20.7307 7.33866 20.7455 6.97851C20.7529 6.65117 20.7957 6.32559 20.8733 6.0075C20.9329 5.75391 21.0555 5.51948 21.23 5.32604C21.4215 5.1604 21.6663 5.06925 21.9196 5.06925C22.1728 5.06925 22.4176 5.1604 22.6091 5.32604C22.7832 5.51924 22.9048 5.75388 22.9622 6.0075C23.0406 6.3255 23.0842 6.65108 23.0922 6.97851C23.1049 7.34195 23.1112 7.71859 23.1112 8.1084C23.1112 8.49821 23.1049 8.87296 23.0922 9.23264C23.0838 9.5619 23.0403 9.88931 22.9622 10.2093C22.9055 10.4638 22.7838 10.6993 22.6091 10.8929C22.5186 10.9821 22.4101 11.0511 22.291 11.0954C22.1718 11.1397 22.0446 11.1583 21.9178 11.1499ZM21.9178 10.2693C21.966 10.2707 22.0137 10.2598 22.0565 10.2376C22.0993 10.2153 22.1356 10.1825 22.1621 10.1422C22.2386 10.0259 22.2869 9.89342 22.3034 9.75522C22.3417 9.53331 22.3629 9.30879 22.3669 9.08364C22.3747 8.80823 22.381 8.48268 22.381 8.1084C22.381 7.73412 22.3747 7.40716 22.3669 7.13316C22.3629 6.90754 22.3417 6.68255 22.3034 6.46017C22.2871 6.32192 22.2387 6.1894 22.1621 6.07318C22.1347 6.03399 22.0983 6.00199 22.0559 5.97989C22.0134 5.9578 21.9663 5.94626 21.9185 5.94626C21.8707 5.94626 21.8236 5.9578 21.7811 5.97989C21.7387 6.00199 21.7023 6.03399 21.6749 6.07318C21.6 6.19029 21.5518 6.32239 21.5336 6.46017C21.4984 6.6829 21.4778 6.90772 21.4722 7.13316C21.4623 7.40716 21.4581 7.73342 21.4581 8.1084C21.4581 8.48338 21.4623 8.80823 21.4722 9.08364C21.4778 9.30861 21.4984 9.53296 21.5336 9.75522C21.552 9.89295 21.6002 10.025 21.6749 10.1422C21.7012 10.1823 21.7374 10.215 21.7799 10.2372C21.8224 10.2595 21.8698 10.2705 21.9178 10.2693Z"
    fill="#1A1818" />
  <path
    d="M23.6924 11.0532V5.1622H24.6705L25.5885 9.24112H25.5984V5.1622H26.2728V11.0525H25.3223L24.3774 6.74476H24.369V11.0525L23.6924 11.0532Z"
    fill="#1A1818" />
  <path d="M26.8914 11.0532V5.1622H27.6132V10.0744H28.6943V11.0525L26.8914 11.0532Z" fill="#1A1818" />
  <path
    d="M29.2974 9.01302L28.39 5.1622H29.1788L29.6978 7.65079L30.2508 5.1622H30.9894L30.0198 9.01302V11.0525H29.2974V9.01302Z"
    fill="#1A1818" />
  <path
    d="M32.3227 6.04846C32.4481 5.92328 32.5649 5.78974 32.6723 5.64876C32.7912 5.4885 32.8912 5.31504 32.9703 5.13184H33.6108V11.0539H32.8876V6.4983C32.804 6.62162 32.7128 6.73955 32.6143 6.85139C32.5176 6.95873 32.4187 7.06325 32.322 7.15788L32.3227 6.04846Z"
    fill="#1A1818" />
  <path
    d="M35.2753 11.128C35.1322 11.1352 34.9898 11.104 34.8627 11.0378C34.7357 10.9715 34.6287 10.8724 34.5528 10.7509C34.3625 10.3751 34.2785 9.95433 34.3099 9.53418C34.3099 9.3534 34.3141 9.18109 34.3268 9.01726C34.3355 8.864 34.3577 8.71181 34.3932 8.56248C34.4256 8.43342 34.476 8.30956 34.5429 8.19455C34.6067 8.08712 34.695 7.99635 34.8007 7.92974V7.91349C34.7079 7.87579 34.6277 7.81233 34.5698 7.73059C34.5073 7.64288 34.4596 7.54556 34.4285 7.44247C34.3906 7.32134 34.3669 7.19621 34.3579 7.0696C34.3452 6.93119 34.3389 6.78289 34.3389 6.62471C34.3101 6.21377 34.3913 5.80258 34.574 5.43338C34.6508 5.31727 34.7552 5.22201 34.8778 5.15611C35.0004 5.0902 35.1375 5.05571 35.2767 5.05571C35.4159 5.05571 35.5529 5.0902 35.6755 5.15611C35.7981 5.22201 35.9025 5.31727 35.9793 5.43338C36.1626 5.80243 36.2442 6.21363 36.2159 6.62471C36.2159 6.78289 36.2081 6.93119 36.1975 7.0696C36.1869 7.19629 36.1621 7.32137 36.1234 7.44247C36.0924 7.54559 36.0447 7.64293 35.9821 7.73059C35.9242 7.81233 35.8441 7.87579 35.7512 7.91349V7.92974C35.8564 7.99697 35.9446 8.0876 36.009 8.19455C36.0754 8.3098 36.1258 8.43358 36.1587 8.56248C36.1947 8.71171 36.217 8.86395 36.2251 9.01726C36.2378 9.18039 36.242 9.3534 36.242 9.53418C36.2737 9.9545 36.1891 10.3754 35.9977 10.7509C35.9216 10.8723 35.8146 10.9712 35.6876 11.0375C35.5606 11.1037 35.4183 11.135 35.2753 11.128ZM35.2753 8.405C35.2381 8.40494 35.2017 8.41582 35.1707 8.43629C35.1397 8.45676 35.1154 8.48591 35.1008 8.5201C35.0591 8.60978 35.0301 8.70486 35.0147 8.80258C34.9978 8.91649 34.9881 9.03136 34.9857 9.14649V9.45933C34.9857 9.54972 34.99 9.63376 34.9963 9.72838C35.0021 9.81728 35.016 9.90545 35.038 9.99179C35.0526 10.0634 35.082 10.1312 35.1241 10.1909C35.1416 10.2148 35.1646 10.2342 35.1912 10.2473C35.2177 10.2604 35.247 10.267 35.2767 10.2665C35.3068 10.2672 35.3367 10.2607 35.3638 10.2476C35.391 10.2344 35.4146 10.215 35.4327 10.1909C35.4745 10.131 35.5038 10.0633 35.5189 9.99179C35.5414 9.90557 35.5553 9.81734 35.5606 9.72838C35.5669 9.63376 35.5711 9.54548 35.5711 9.45933V9.14649C35.5688 9.03136 35.5591 8.91649 35.5422 8.80258C35.5281 8.70447 35.4988 8.60916 35.4553 8.5201C35.4404 8.48501 35.4152 8.45524 35.3831 8.4347C35.351 8.41416 35.3134 8.40381 35.2753 8.405ZM35.2753 5.92064C35.2467 5.92054 35.2187 5.92792 35.1939 5.94205C35.1691 5.95617 35.1485 5.97655 35.134 6.00115C35.0954 6.06206 35.0684 6.12957 35.0542 6.20029C35.0355 6.2828 35.023 6.3666 35.0168 6.45099C35.0126 6.53902 35.0104 6.61953 35.0104 6.6925C35.0104 6.76547 35.0126 6.85045 35.0168 6.94743C35.0222 7.03457 35.034 7.12119 35.0521 7.2066C35.064 7.27905 35.0907 7.34827 35.1305 7.40998C35.145 7.43445 35.1657 7.45469 35.1905 7.46868C35.2153 7.48268 35.2433 7.48996 35.2717 7.48978C35.3008 7.49034 35.3296 7.48327 35.3551 7.46927C35.3806 7.45527 35.402 7.43483 35.4172 7.40998C35.4566 7.34793 35.4837 7.27888 35.497 7.2066C35.5146 7.1212 35.5255 7.03454 35.5295 6.94743C35.5358 6.85634 35.5372 6.77089 35.5372 6.6925C35.5372 6.61412 35.5372 6.53855 35.5295 6.45099C35.5248 6.36662 35.5132 6.28278 35.4949 6.20029C35.4796 6.12958 35.4519 6.06215 35.413 6.00115C35.3989 5.97698 35.3788 5.95682 35.3547 5.94261C35.3306 5.92839 35.3032 5.92129 35.2753 5.92064Z"
    fill="#1A1818" />
  <path
    d="M37.2745 6.30622H37.8055V7.91349H38.6162V8.81741H37.8055V10.4233H37.2745V8.81741H36.4595V7.91349H37.2745V6.30622Z"
    fill="#1A1818" />
</svg>