<svg xmlns="http://www.w3.org/2000/svg" fill="none" viewBox="0 0 43 64">
  <path fill="#fff" d="M42.6655 0H-.00073242v64H42.6655V0Z" />
  <path fill="#1A1818" d="M42.0461.68641V63.3129H.619297V.68641H42.0461Z" />
  <path fill="#fff"
    d="M2.70395 2.9123H39.6628v10.3851H2.70395V2.9123ZM2.687 15.5622h36.98v38.1777H2.687V15.5622ZM2.69406 61.0566v-5.069h7.42414v1.1864H5.67628v.7246h3.75901v1.1821H5.67698v.7938h4.61422v1.1821H2.69406ZM16.5995 57.4643c-.0366-.0893-.0955-.1678-.171-.2278-.0755-.0601-.1652-.0998-.2605-.1154-.2512-.0679-.5109-.0993-.7711-.0933-.6561 0-.9491.1067-.9491.2959 0 .7493 5.2356.2825 5.2356 2.1235 0 1.173-1.7612 1.7471-4.2611 1.7471-2.401 0-3.9694-.7817-4.033-1.6948h2.8572c.0466.0998.1153.1877.201.257.0857.0692.186.118.2933.1427.2739.0874.56.1306.8475.1278.745 0 1.2414-.132 1.2414-.3721 0-.7684-5.2391-.2416-5.2391-2.1737 0-1.0762 1.6694-1.6171 3.9468-1.6171 2.5253 0 3.6778.7167 3.8953 1.603l-2.8332-.0028ZM24.1486 58.1867h1.173c.9237 0 1.4194-.1342 1.4194-.4837 0-.3496-.5056-.529-1.2005-.529h-1.3919v1.0127Zm0 1.1045v1.7654h-2.9822v-5.069h4.2993c3.0295 0 4.0309.4633 4.0309 1.4484 0 .5862-.4654 1.0727-1.5289 1.2436.9604.1928 1.543.3129 1.543 1.3354 0 .6589-.0389.8884.3149.8884v.1539h-3.0245c-.117-.2803-.1677-.5838-.1483-.8869 0-.6653-.2034-.8792-1.5932-.8792h-.911ZM34.3113 57.174v.8475h1.2429c.5946 0 1.0254-.1526 1.0254-.4428 0-.3969-.5883-.4054-1.2147-.4054l-1.0536.0007Zm0 1.7655v.9343h1.3008c.7394 0 1.2944-.0862 1.2944-.4647 0-.4428-.6934-.4696-1.6468-.4696h-.9484Zm-2.9815 2.1185v-5.0689h4.3508c2.0479 0 3.6799.2754 3.6799 1.2782 0 .5225-.6094.9032-1.1892 1.1009.9851.1412 1.5141.6172 1.5141 1.161 0 1.1298-1.5536 1.5288-3.9201 1.5288h-4.4355Z" />
  <path fill="#1A1818"
    d="m5.451 24.3866 22.3797-6.6861 2.2442 7.0887-11.2114 3.3459.9181 2.901 10.3583-3.0917 2.2386 7.0922-10.3541 3.0853.9668 3.055 11.5779-3.4603 2.2449 7.0858-22.744 6.7942-8.619-27.21ZM3.73004 11.0454V5.16361h3.17288v.90533H4.94679v1.44909h1.80289v.90674H4.94679v1.71673h2.01898v.9053l-3.23573-.0014ZM7.28779 5.16361h1.26618l.89898 4.27665h.01694L10.484 5.16361h1.2005l-1.5388 5.88179H8.72205L7.28779 5.16361ZM12.2332 11.0454V5.16361h3.1715v.90533h-1.9569v1.44909h1.8043v.90674h-1.8043v1.71673h2.0204v.9053l-3.235-.0014ZM17.4491 11.0454h-1.214V5.16361h2.2436c.1842-.00929.3683.0208.54.08826.1717.06746.3271.17075.4557.30297.2647.32168.3956.73276.3658 1.14825.0103.33449-.0745.66503-.2443.95335-.0951.13713-.2189.25193-.3628.33644-.1439.08451-.3045.1367-.4705.15295v.01483l.2733.04943c.1253.02455.2443.07455.3495.14689.1259.08715.2295.2028.3023.33755.0959.1933.1404.40806.1292.62356 0 .09039 0 .22174.0042.39052.0043.16878.0085.34109.0191.52119.0106.1801.0268.3439.0452.4943.0093.1088.033.2159.0706.3185h-1.1934c-.0817-.1772-.1245-.3698-.1257-.565v-.57832c0-.17301 0-.33897-.0043-.49433.0006-.14097-.0267-.28067-.0805-.411-.0528-.11949-.143-.21861-.257-.28247-.1642-.07988-.346-.11658-.5283-.10663h-.3149l-.0028 2.44055Zm0-3.34023h.5395c.1055.00351.2097-.02505.2987-.08192.0799-.0524.1456-.12371.1914-.20762.0505-.0874.0851-.18302.1024-.28247.0175-.09694.0265-.19525.0268-.29377.0211-.2131-.0375-.42645-.1645-.59885-.0594-.05931-.1305-.10549-.2089-.13554-.0783-.03005-.1621-.04329-.2459-.03888h-.5395v1.63905ZM21.6848 9.00808l-1.5226-3.84447h1.3312l.87 2.48436.9258-2.48436h1.2386l-1.6242 3.84447v2.03732h-1.2188V9.00808ZM27.039 11.1457c-.403.0229-.8046-.066-1.1602-.2571-.2644-.1613-.4729-.3999-.5975-.6835-.1266-.30965-.1982-.63895-.2118-.97316-.0212-.36369-.0332-.73867-.0332-1.12354 0-.38487.012-.76903.0332-1.12989.0131-.33245.0848-.65998.2118-.96748.1246-.28286.3332-.52054.5975-.68076.3629-.16999.7588-.25811 1.1595-.25811.4008 0 .7967.08812 1.1596.25811.2646.15962.4731.3975.5967.68076.1275.30755.2006.63491.2161.96748.0212.36439.0325.74078.0325 1.12989 0 .38911-.0106.75985-.0325 1.12354-.016.33433-.0891.66345-.2161.97316-.1235.284-.332.5228-.5967.6835-.3551.1912-.7563.2801-1.1589.2571Zm0-.8806c.1476.0077.2931-.0368.411-.1257.1124-.1044.1932-.23822.2331-.3863.0604-.21936.0955-.44493.1045-.67229.0169-.27541.0261-.59884.0261-.97312 0-.37427-.0085-.69982-.0261-.97382-.0089-.22737-.044-.45295-.1045-.67229-.0397-.14817-.1205-.28209-.2331-.38628-.1212-.08268-.2646-.1269-.4113-.1269-.1468 0-.2901.04422-.4114.1269-.1145.10249-.1954.2371-.2323.38628-.0619.21907-.0972.44478-.1052.67229-.016.274-.0243.5986-.0247.97382 0 .37428.0084.69771.0247.97312.0081.2275.0434.4532.1052.67229.0371.14909.118.2836.2323.3863.1186.0879.2643.1314.4117.1229v.0028ZM30.0163 11.0454V5.16361h1.6447l1.543 4.07186h.017V5.16361h1.1376v5.88179h-1.6037l-1.5861-4.30135h-.017v4.30135h-1.1355ZM35.3776 11.0454V5.16361h3.1779v.90533h-1.9597v1.44909h1.8008v.90674h-1.8008v1.71673h2.0183v.9053l-3.2365-.0014Z" />
</svg>