<svg xmlns="http://www.w3.org/2000/svg" fill="none" viewBox="0 0 43 64">
  <path fill="#fff" d="M42.6667 0H0v64h42.6667V0Z" />
  <path fill="#231F20" d="M42.0498.690547V63.3002H.616889V.690547H42.0498Z" />
  <path fill="#fff"
    d="M39.6559 13.056H2.67012v40.6871H39.6559V13.056ZM2.69774 61.0629v-5.0733h7.42106v1.1878H5.68091v.7274h3.75658v1.1785H5.68091v.7918h4.61289v1.1878H2.69774ZM16.6008 57.472c-.0356-.0909-.0941-.1709-.17-.2323-.0759-.0613-.1665-.1019-.2628-.1176-.2521-.067-.5125-.098-.7734-.092-.6537 0-.9207.1105-.9207.2946 0 .755 5.2389.2854 5.2389 2.1269 0 1.1693-1.7586 1.7494-4.2629 1.7494-2.5044 0-3.9684-.7826-4.0328-1.7034h2.8542c.047.1007.1161.1894.2022.2595.0861.0702.187.12.295.1457.274.0867.5597.1302.8471.1289.7458 0 1.243-.1382 1.243-.3776 0-.7642-5.239-.2393-5.239-2.1729 0-1.0772 1.6665-1.6113 3.95-1.6113 2.5228 0 3.6829.709 3.8946 1.6021h-2.8634ZM24.1508 58.1902h1.1693c.9207 0 1.4179-.1289 1.4179-.4788s-.5064-.534-1.1969-.534h-1.3903v1.0128Zm0 1.1049v1.7678h-2.9832v-5.0733h4.2998c3.0292 0 4.0328.4696 4.0328 1.4548 0 .5801-.4696 1.068-1.5284 1.243.9207.1933 1.5376.313 1.5376 1.335 0 .6538 0 .9208.3131.9208v.1565h-3.02c-.1214-.2909-.1719-.6065-.1473-.9207 0-.6722-.2026-.9208-1.5929-.9208l-.9115.0369ZM34.3064 57.1774v.8471h1.2522c.5893 0 1.022-.1474 1.022-.442s-.5892-.4051-1.2153-.4051h-1.0589Zm0 1.7678v.9207h1.3075c.7365 0 1.289-.0828 1.289-.4603s-.6906-.4696-1.6389-.4696l-.9576.0092Zm-2.9739 2.1177v-5.0733h4.3458c2.0532 0 3.6829.2763 3.6829 1.2799 0 .5248-.6076.9207-1.1877 1.1048.9852.1381 1.51.6169 1.51 1.1602 0 1.1325-1.5468 1.5284-3.9131 1.5284h-4.4379Z" />
  <path fill="#231F20"
    d="M22.5763 34.3156c-.6169-2.2834-1.8414-3.6276-3.5816-4.088 1.0864-1.2706 1.7033-3.241.8655-6.3254-1.1694-4.3091-4.1249-6.3899-7.7342-5.4323l-8.19448 2.1729h-.16573l6.78581 25.1083 5.5244-1.464s-2.2282-8.2221-2.6149-9.6676l.267-.0737c.5922-.2302 1.2492-.2302 1.8415 0 .7181.4144 1.0588 1.6665 1.4455 3.1213l.3038 1.1601c.2739 1.457.8443 2.8423 1.6758 4.0697l.3683.4879 6.2701-1.6573-.8286-1.0036c-.9442-2.0606-1.6903-4.2064-2.2282-6.4083Zm-8.9679-4.4931-1.3995.3775c-.4051-1.5192-1.3443-4.9996-1.7494-6.5096l1.3903-.3683c.6629-.1749 1.777-.4696 2.5873 2.532.1565.5893.8562 3.5172-.8287 3.9684ZM29.4081 14.299l-7.3658 1.9611-.9207.2302 6.7858 25.1083 5.598-1.4824s-2.1821-8.0656-2.5688-9.5111l2.4031-.6353c4.3734-1.1693 6.04-4.6037 4.6957-9.5388-1.7034-6.5003-5.6165-6.9239-8.6273-6.132Zm2.2835 11.1408-1.9888.534c-.4051-1.4916-1.3627-5.018-1.7586-6.5096l1.7033-.4511c.9208-.2578 2.0625-.2578 2.9372 2.9832.5064 1.5376.0184 3.2133-.8563 3.4435h-.0368Z" />
  <path fill="#fff" d="M39.6375 2.53201H2.67933v8.86659H39.6375V2.53201Z" />
  <path fill="#231F20"
    d="M4.49317 9.92548h-.73659V4.02359h1.36269c.12723.0016.25131.03978.35743.10999.10612.0702.18979.16946.24103.28593.16825.35928.24421.75487.22099 1.15091.00489.31315-.04497.62475-.14732.92073-.03777.11672-.10374.22231-.19207.30743-.08834.08512-.1963.14714-.31433.18056a.76394074.76394074 0 0 1 .16573 0c.08367.02695.1574.07824.21176.14732.08484.09921.14762.21534.18415.34067.06347.20237.09151.41418.08287.62609v1.40872c-.01136.10712-.01136.21514 0 .32226H5.285c-.04825-.18647-.07299-.37824-.07366-.57085v-.97598c-.00163-.1368-.02018-.27288-.05524-.40512-.0212-.10911-.07593-.20889-.15653-.28543-.04175-.039-.09111-.06895-.14498-.08796-.05387-.01902-.11109-.02669-.16807-.02252h-.19335v2.44914Zm0-3.35146h.32225c.03498.00109.06974-.00581.10165-.02016.03191-.01436.06012-.03581.0825-.06271.05441-.06133.09521-.13351.1197-.21177.02897-.08964.04751-.18232.05524-.27622.00889-.09801.00889-.19662 0-.29463.01907-.20491-.01585-.41125-.10128-.59847-.02363-.05318-.06246-.09817-.11162-.1293-.04915-.03114-.10644-.04702-.16461-.04564h-.32225l.01842 1.6389ZM6.21493 9.92548l.97598-5.90189h.92073l.92073 5.90189h-.77342L8.0656 8.61804h-.92073l-.20256 1.30744h-.72738Zm1.41793-4.76939L7.3106 7.70652h.69976l-.3775-2.55043ZM11.2697 4.02359v.98519h-.8194v4.9167h-.73659v-4.9167h-.81945v-.98519h2.37544ZM11.6104 9.92548V4.02359h.7366v5.90189h-.7366ZM12.9731 9.92548V4.02359h.9944l.9207 4.08805V4.02359h.709v5.90189h-.9208l-.9207-4.31823v4.31823h-.7826ZM17.8346 5.83743v-.3867c-.0046-.11312-.0263-.2249-.0645-.33147-.0241-.08316-.0684-.15908-.1289-.22097-.0311-.03138-.0686-.05581-.1098-.07168-.0413-.01587-.0854-.02282-.1296-.0204-.0563.0018-.1109.02025-.1568.05303-.0459.03277-.081.0784-.101.13112-.0739.15019-.1207.31229-.1381.47878-.0301.23218-.0486.46572-.0552.69976v1.94274c.0107.21971.0384.43827.0828.65372.0173.1204.0759.23106.1657.31305.0728.05855.1646.08807.2579.08286h.1841l.1841-.08286V7.74334h-.3867v-.92073h1.1417v2.99238l-.2025.05524-.267.06445c-.0941.0237-.1894.04214-.2855.05525h-.2485c-.256.01187-.5104-.04537-.7366-.16573-.1969-.12763-.3433-.31963-.4144-.54323-.1038-.29688-.1658-.60676-.1841-.92073V5.83743c.014-.31151.0634-.62041.1473-.92073.0649-.2559.1949-.49064.3775-.68134.0914-.09105.201-.16187.3215-.20787.1206-.046.2494-.06615.3783-.05914.1715-.00333.3405.04132.4879.1289.1509.09109.2773.21749.3683.3683.1024.1868.1739.38888.2118.59847.0565.26926.0781.54467.0645.81945l-.7642-.04604ZM20.2929 4.0236h1.3259c.1527-.00218.3028.03935.4327.11969.1273.09255.2287.21618.2946.35909.0808.17871.1366.3677.1658.56164.0155.24221.0155.48517 0 .72738v.55244c-.0209.19251-.0674.38138-.1381.56164-.0618.16859-.1628.32008-.2947.44195-.145.11889-.3282.18105-.5156.17494h-.5524v2.40311h-.7366l.0184-5.90188Zm.7366 2.58725h.4143c.0278.00045.0553-.00507.0807-.01619.0254-.01112.0481-.02758.0666-.04826.0493-.0548.0896-.11692.1197-.18415.0689-.17275.1033-.35729.1013-.54323v-.34067c-.0051-.09811-.0269-.19463-.0644-.28543-.0241-.07521-.0688-.14218-.1289-.19335-.0567-.04677-.1293-.06985-.2026-.06445h-.3683l-.0184 1.67573ZM22.963 9.92548V4.02359h1.9244v.92074h-1.151v1.40871h1.0681v.92073h-1.0681v1.72177h1.2246v.92073l-1.998.00921ZM25.449 9.92548V4.02359h.9944l.9207 4.08805V4.02359h.6814v5.90189h-.9208l-.9207-4.31823v4.31823h-.755ZM28.7084 4.02359h1.2338c.2128-.00563.4211.0627.5892.19336.1619.16059.2793.36047.3407.58006.096.29854.1547.60779.1749.92073V8.12084c-.0158.22279-.0466.44426-.092.66293-.0421.2001-.107.39472-.1934.58006-.0831.16066-.203.29946-.3499.40512-.1474.11343-.3297.17203-.5156.16573h-1.1877V4.02359Zm.7366 4.99036h.3591c.0511.00126.1019-.00789.1494-.02688.0475-.019.0906-.04744.1268-.0836.0788-.10279.1324-.22263.1565-.34988.0458-.20931.0766-.42161.0921-.63531V6.22414c-.0055-.21919-.0271-.43768-.0645-.65372-.0208-.15528-.0708-.30524-.1473-.44195-.0304-.05088-.0736-.09292-.1253-.12199-.0517-.02906-.11-.04414-.1693-.04374h-.4144l.0369 4.05121ZM31.6823 9.92548V4.02359h.7366v5.90189h-.7366ZM33.0911 9.92548V4.02359h.9207l.9207 4.08805V4.02359h.6814v5.90189h-.9208l-.9207-4.31823v4.31823h-.6813ZM37.9065 5.83743v-.3867c-.0063-.11217-.0249-.22331-.0553-.33147-.027-.08393-.0745-.15985-.1381-.22097-.0348-.03588-.078-.06259-.1257-.07777-.0476-.01518-.0983-.01836-.1475-.00926-.0492.00911-.0954.03023-.1344.06147-.0391.03124-.0699.07165-.0896.11763-.0739.15019-.1207.31229-.1381.47878-.0159.23298-.0159.46677 0 .69975v1.94275c.0015.22043.0293.4399.0829.65372.0187.11797.0734.2273.1565.31304.0742.05572.165.0849.2578.08287h.1934l.1749-.08287V7.74334h-.4051v-.92073h1.0772v2.99238l-.1933.05524-.267.06445-.2854.05525h-.2486c-.2561.01277-.5107-.0445-.7366-.16573-.1993-.12718-.3488-.31896-.4236-.54323-.1038-.29688-.1658-.60677-.1841-.92073V5.83743c.014-.31151.0634-.62041.1473-.92073.0618-.25512.1887-.48986.3683-.68134.1584-.14482.3584-.2361.5716-.26089.2132-.02479.4287.01817.6161.12278.1509.09109.2772.21748.3683.36829.1096.18436.1845.38718.221.59848.0485.27029.067.5451.0553.81945l-.7182-.04604ZM3.76579 52.6382v-5.773h.66293v4.7878h.97597v.9207l-1.6389.0645ZM5.69932 52.6382v-5.773h.69055v5.7362l-.69055.0368ZM8.29578 46.8652h.72738l-.92073 2.578.92073 3.1582h-.73659l-.75499-2.9372v2.9372h-.65372v-5.7362h.65372v2.4584l.7642-2.4584ZM9.3178 52.6382v-5.773h1.6757v.9207H9.98072v1.4087h.92078v.9208h-.92078v1.6757h1.08648v.9207l-1.7494-.0736ZM11.4999 52.6382v-5.773h.6537v4.7878h.9852v.9207l-1.6389.0645ZM13.6821 50.6494l-.8471-3.7842h.7182l.4695 2.4215.5248-2.4215h.6722l-.9208 3.7474v1.9888h-.6537l.0369-1.952ZM16.5179 52.6382v-5.773h1.0128l.488 3.9039.534-3.9039h1.022v5.7362h-.6445v-4.3919l-.5708 4.4287h-.6261l-.5801-4.4287v4.4287h-.6353ZM19.8694 52.6382l.8655-5.773h.8654l.8563 5.7362h-.6905l-.175-1.2707h-.9207l-.1841 1.2707-.6169.0368Zm1.2614-4.6037-.2947 2.4768h.6261l-.3314-2.4768ZM24.3717 46.8652v.9207h-.7273v4.7878h-.6814v-4.7878h-.7274v-.9207h2.1361ZM26.8025 46.8652v4.0696c.0005.2161-.018.4317-.0553.6445-.0348.1949-.0968.384-.1841.5617-.0763.1571-.1864.2954-.3223.4051-.1471.1062-.325.1612-.5064.1565-.1656.0005-.3283-.0438-.4709-.128-.1426-.0843-.2598-.2054-.3393-.3507-.1913-.4018-.2799-.8447-.2578-1.2891v-4.0696h.6537v3.9868c-.0157.2596.0219.5196.1105.7642.0217.0618.0613.1158.1138.1551.0524.0394.1154.0623.1808.0658.0726-.0001.1429-.0247.1998-.0698.0568-.0452.0967-.1081.1133-.1788.0804-.2368.1148-.4868.1012-.7365v-3.9868h.663ZM27.981 52.6382h-.6629v-5.773h1.2153c.1167.0019.2301.039.3253.1063.0953.0674.168.1619.2088.2712.156.3529.2255.7381.2025 1.1233.0064.3125-.0403.6238-.1381.9207-.0262.1111-.0806.2136-.1581.2975-.0774.0838-.1752.1463-.2838.1813h.1473c.0734.0273.1374.0752.1841.1381.0772.0981.1336.2109.1658.3315.0503.1984.072.4031.0644.6077v1.6849h-.6353c-.0477-.1772-.0724-.3598-.0736-.5432v-.9392c.0162-.1345.0162-.2706 0-.4051-.0234-.1018-.0707-.1965-.1382-.2762-.0383-.0352-.0833-.0624-.1323-.0798-.0491-.0174-.1011-.0247-.1531-.0215h-.1657l.0276 2.3755Zm0-3.2594h.2854c.0312-.0004.062-.0072.0905-.0198.0284-.0127.0541-.031.0753-.0539.041-.0636.075-.1315.1012-.2025.029-.0897.0476-.1824.0553-.2762v-.2855c.0109-.2007-.0205-.4014-.0921-.5892-.0212-.0486-.0559-.09-.0999-.1194-.0441-.0294-.0957-.0455-.1487-.0464h-.2854l.0184 1.5929ZM29.7488 52.6382v-5.773h1.7126v.9207h-1.0497v1.4087h.9208v.9208h-.9208v1.6757h1.0865v.9207l-1.7494-.0736ZM32.8333 47.9517c.1137-.1178.2183-.244.313-.3775.109-.1509.1987-.3148.267-.488h.5985v5.5244h-.6629V48.366c-.0729.1228-.1594.2371-.2578.3407-.0829.1012-.175.1933-.2578.2854v-1.0404ZM36.3136 48.145l-.7366 4.4932h-.6445l.8379-4.6865h-1.0865v-.8655h1.6297v1.0588ZM37.3264 48.6238h.4788v1.5652h.7366v.9208h-.7366v1.5652h-.4788v-1.5652h-.7458v-.9208h.7458v-1.5652Z" />
</svg>