<svg xmlns="http://www.w3.org/2000/svg" fill="none" viewBox="0 0 43 64">
  <path fill="#fff" d="M42.6677 0H.00146484v64H42.667l.0007-64Z" />
  <path fill="#1A1818" d="M42.0476.68641V63.3136H.621494V.68641H42.0476Z" />
  <path fill="#fff"
    d="M2.70615 2.9123H39.665v10.3858H2.70615V2.9123ZM2.6892 15.5622h36.98v38.1777h-36.98V15.5622ZM2.69626 61.058v-5.0689h7.42414v1.1863H5.67847V57.9h3.75902v1.1821H5.67847v.7938h4.61423v1.1821H2.69626ZM16.601 57.4657c-.0363-.0895-.095-.1682-.1706-.2283-.0756-.0601-.1655-.0997-.2609-.1149-.2507-.0679-.51-.0993-.7697-.0932-.656 0-.9491.1066-.9491.2959 0 .7492 5.2349.2824 5.2349 2.1234 0 1.173-1.7598 1.7471-4.2611 1.7471-2.401 0-3.968-.7817-4.0316-1.6948h2.8558c.0469.0996.1157.1873.2014.2565.0856.0693.1857.1182.2929.1432.2739.0875.56.1306.8475.1278.7464 0 1.2414-.132 1.2414-.3721 0-.7684-5.2398-.2415-5.2398-2.1737 0-1.0762 1.6708-1.6171 3.9468-1.6171 2.5267 0 3.6778.7167 3.896 1.603l-2.8339-.0028ZM24.1515 58.1881h1.173c.9223 0 1.418-.1342 1.418-.4837 0-.3496-.5042-.529-1.2005-.529h-1.3905v1.0127Zm0 1.1045v1.7654h-2.9822v-5.0689h4.2993c3.0295 0 4.0309.4632 4.0309 1.4483 0 .5862-.4668 1.0727-1.5289 1.2436.959.1928 1.5416.3129 1.5416 1.3354 0 .6589-.0389.8884.3149.8884v.1539H26.804c-.1176-.2801-.1688-.5837-.1498-.8869 0-.6652-.2019-.8792-1.5924-.8792h-.9103ZM34.3128 57.1754v.8475h1.2436c.5932 0 1.0254-.1526 1.0254-.4428 0-.3969-.5883-.4054-1.2147-.4054l-1.0543.0007Zm0 1.7655v.9343h1.3022c.7394 0 1.293-.0862 1.293-.4647 0-.4428-.692-.4696-1.6461-.4696h-.9491Zm-2.9801 2.1186v-5.069h4.3508c2.0479 0 3.6799.2754 3.6799 1.2782 0 .5225-.6094.9032-1.1892 1.1009.9851.1412 1.5127.6172 1.5127 1.161 0 1.1299-1.5536 1.5289-3.9187 1.5289h-4.4355Z" />
  <path fill="#1A1818"
    d="m4.02954 25.0158 11.34056-3.0556 6.468 15.2302.0543-.019-1.9518-16.4357 11.3406-3.0522 7.0752 26.5963-6.9107 1.8523-5.0605-19.0125-.0544.0211 2.1426 19.7894-7.4799 2.0197L13.02 30.7303l-.0565.0148 5.0506 19.0126-6.9072 1.8565-7.07736-26.5984ZM3.73153 11.0355V5.15443h1.66659l.7768 3.99841h.01412l.82341-3.99841H8.6282v5.88107H7.61765V6.4983h-.01412l-.95476 4.5372h-.98866l-.90815-4.5372h-.01271v4.5372H3.73153ZM9.09993 11.0355l1.37287-5.88107h1.3685l1.346 5.88107h-1.0924l-.274-1.30429h-1.4166l-.2825 1.30429H9.09993Zm1.99987-4.74905h-.0162l-.4731 2.54226h.9886l-.4993-2.54226ZM16.2169 5.15373v.97806h-1.154v4.90371h-1.0388v-4.903h-1.1539v-.97807l3.3467-.0007ZM20.0528 5.15373v4.16648c-.0001.22219-.0291.44342-.0861.65816-.0566.20873-.1524.40483-.2825.57763-.1386.1769-.3162.3192-.519.416-.2508.1116-.5236.1652-.798.1567-.2349.0186-.4709-.0155-.6909-.1-.2199-.0844-.4182-.217-.5803-.3879-.2941-.3752-.4419-.84454-.4159-1.32059V5.15373h1.0374v4.0888c-.0225.27075.0386.54189.1751.77677.0529.0735.1228.133.2037.1735.0809.0405.1705.0607.261.0589.0992.0068.1983-.0138.2865-.0596.0883-.0459.1621-.1152.2135-.20031.1204-.2311.1758-.49055.1603-.75067v-4.0888l1.0352.00141ZM21.9143 11.0355h-1.0388V5.15443h1.9166c.1622-.00552.3233.02713.4705.09533s.2763.17004.3769.29731c.2312.3356.342.73957.3143 1.14614.0096.33044-.0632.65808-.2119.95334-.0719.1306-.173.24275-.2956.32766-.1225.08491-.263.14027-.4105.16173v.01695c.055.00989.132.02683.2344.04731.1092.02626.211.0767.298.1476.1107.09164.1987.20766.2571.33896.0836.19605.1215.40857.1108.62144 0 .09393 0 .22386.0043.39123.0042.16737.0077.34317.0169.52117.0092.178.0205.3453.0375.4943.0067.1083.0259.2154.0572.3192h-1.0162c-.0695-.1803-.1058-.3717-.1074-.5649V9.39718c.0006-.14075-.0233-.28054-.0706-.41311-.042-.11492-.1191-.21373-.2203-.28248-.1361-.07874-.2922-.11582-.4492-.10663h-.2697l-.0043 2.44054Zm0-3.33951h.4612c.0917.00305.1816-.02536.2549-.08051.069-.05789.1244-.13021.1624-.21185.0451-.08861.0751-.18405.089-.28248.0149-.09722.0227-.19541.0233-.29377.019-.20964-.0305-.41979-.1412-.59884-.0468-.05719-.1063-.10272-.1737-.13299-.0674-.03027-.1409-.04446-.2147-.04144h-.4612v1.64188ZM24.7179 11.0355V5.15443h2.7075v.90392h-1.6687v1.45121h1.5388v.9032h-1.5388v1.71674h1.7231v.906h-2.7619ZM29.5856 6.03716c.1761-.12166.3438-.25495.5021-.39899.1641-.15221.3067-.32613.4237-.51693h.9181v5.91286h-1.0388V6.48488c-.1205.12858-.2506.2478-.3891.35663-.1378.10522-.2776.20761-.4195.30436l.0035-1.10871ZM35.0889 6.24902l-1.1694 4.78508h-1.0784l1.3135-4.99694h-1.644v-.91804h2.5783v1.1299ZM36.6891 6.29421h.7641v1.60516h1.1603v.90321h-1.1603v1.60372h-.7641V8.80258h-1.1687v-.90321h1.1687V6.29421Z" />
</svg>