<svg xmlns="http://www.w3.org/2000/svg" fill="none" viewBox="0 0 43 64">
  <path fill="#fff" d="M42.6662 0H0v63.9988h42.6659L42.6662 0Z" />
  <path fill="#1A1818" d="M42.0467.686932V63.3157H.619487V.686932H42.0467Z" />
  <path fill="#fff"
    d="M2.70435 2.91263H39.6632V13.2977H2.70435V2.91263ZM2.68771 15.562H39.6677V53.74H2.68771V15.562ZM2.69484 61.0568v-5.0691h7.42436v1.1864H5.67789v.7243H9.4367v1.1822H5.67789v.7931h4.61331v1.1822l-7.59636.0009ZM16.599 57.4649c-.0361-.0892-.0946-.1676-.17-.2275-.0753-.06-.1649-.0994-.2599-.1145-.2511-.0688-.5108-.1006-.7711-.0944-.6557 0-.9507.1075-.9507.2971 0 .7493 5.2349.2784 5.2349 2.1223 0 1.1739-1.7602 1.747-4.2607 1.747-2.4019 0-3.9683-.7817-4.0319-1.6965h2.8568c.0465.0999.1153.1878.201.257.0858.0691.1862.1177.2937.142.2745.0877.5613.1309.8495.1281.7451 0 1.2407-.1322 1.2407-.372 0-.7675-5.239-.241-5.239-2.1728 0-1.0774 1.6686-1.6169 3.9469-1.6169 2.5255 0 3.6771.716 3.8964 1.602l-2.8366-.0009ZM24.1499 58.186h1.173c.9234 0 1.4193-.1343 1.4193-.4828 0-.3565-.5051-.5288-1.2021-.5288h-1.3902v1.0116Zm0 1.1053v1.7655h-2.9825v-5.0694h4.2996c3.0306 0 4.0307.4644 4.0307 1.4493 0 .5859-.4656 1.0729-1.529 1.2428.96.1935 1.543.3129 1.543 1.3353 0 .6602-.0387.889.3149.889v.1527h-3.0244c-.1171-.28-.168-.5832-.1485-.886 0-.6656-.2032-.8795-1.5934-.8795l-.9104.0003ZM34.3119 57.1744v.8482h1.2428c.5942 0 1.0256-.1536 1.0256-.443 0-.3966-.588-.4052-1.2149-.4052h-1.0535Zm0 1.7654v.9336h1.3007c.7399 0 1.2946-.0859 1.2946-.4635 0-.443-.6935-.471-1.6472-.471l-.9481.0009Zm-2.9819 2.117v-5.0694h4.3516c2.0501 0 3.68.2754 3.68 1.2794 0 .5226-.6096.9032-1.1884 1.0993.9849.1429 1.5138.6171 1.5138 1.1611 0 1.1291-1.5516 1.529-3.9199 1.529l-4.4371.0006Z" />
  <path fill="#1A1818"
    d="M22.549 39.0125c-.6171-2.2845-1.8421-3.6209-3.5876-4.0877 1.0859-1.2696 1.703-3.2341.872-6.3196-1.1677-4.3082-4.1317-6.3973-7.7345-5.4373l-8.1942 2.1797-.16787.0431L10.523 50.497l5.4809-1.4613s-2.2234-8.2215-2.6126-9.6696l.2674-.071c.8376-.2172 1.4494-.2151 1.8591.0226.7258.4159 1.0613 1.6718 1.4449 3.1244l.3063 1.1567c.3565 1.3965.7353 2.8428 1.6793 4.0738l.3678.4849 6.2692-1.6612-.8418-1.0774c-.4237-.5416-1.4772-3.7507-2.1945-6.4064Zm-8.9699-4.4864s-.7033.1881-1.3964.3708c-.4098-1.5126-1.3484-4.9916-1.7578-6.5069.6881-.1782 1.3965-.3678 1.3965-.3678.6634-.1741 1.7728-.4709 2.5849 2.535.1557.5832.8619 3.5182-.8272 3.9677v.0012ZM29.416 18.9967l-7.3819 1.961-.8869.2344 6.7832 25.1099 5.6024-1.4856s-2.1826-8.07-2.5748-9.5095c.946-.2549 2.4093-.6385 2.4093-.6385 4.3706-1.1665 6.0413-4.5542 4.6897-9.5374-1.7548-6.4988-5.6639-6.9213-8.641-6.1343Zm2.2836 11.1419s-1.0782.2882-1.9942.5312c-.3988-1.4838-1.3578-5.0177-1.7548-6.5024.8129-.216 1.6998-.4504 1.6998-.4504.9653-.2591 2.0685-.2591 2.9438 2.9759.4184 1.5391-.0169 3.2133-.8946 3.4457ZM4.46625 11.0566h-.73744V5.16061h1.36227c.12724.00156.25143.03915.35818.1084.10675.06926.19169.16735.24497.2829.16804.35961.2441.75534.22135 1.15162.00942.32502-.04093.649-.14856.95583-.0368.11726-.10226.2235-.19045.30909-.08819.0856-.19633.14786-.31464.18115v.01604c.03981.0107.09448.02704.16549.04962.08283.02859.15635.07911.21273.14618.08252.10017.1446.21555.18273.33961.05874.20256.08492.41316.07755.62394 0 .0924.00208.22373.00327.3913.00119.16757.00535.34291.01188.52351.00654.1807.01605.345.02674.4968.00484.1075.01886.2143.0419.3194h-.72229c-.04975-.1841-.07542-.3738-.07636-.5645v-.57941c0-.17411 0-.34079-.00208-.49886.00014-.13882-.01683-.27713-.05051-.4118-.02463-.10698-.07866-.20494-.15599-.28285-.0882-.0754-.20243-.11327-.31821-.10548h-.19134l-.00119 2.4435Zm0-3.34911h.32683c.03435.00067.06843-.0062.09984-.02011.03141-.01391.0594-.03453.08199-.06041.05192-.06109.09138-.13174.11617-.20798.03037-.09151.05128-.18589.0624-.28167.0098-.1031.01604-.20204.01604-.29444.01497-.20517-.01968-.41092-.10102-.59988-.02448-.05223-.06339-.09638-.11213-.12723-.04875-.03085-.10531-.04711-.163-.04688h-.32682l-.0003 1.6386ZM6.18982 11.0566l.97514-5.89599h.97097l.95701 5.89599h-.77547l-.1958-1.30733H7.11653l-.19996 1.30733h-.72675Zm1.42022-4.76071h-.0107l-.33752 2.54807h.70535l-.35713-2.54807ZM11.2453 5.16061v.98048h-.8195v4.91551h-.73744V6.1399h-.82034v-.98048l2.37728.00119ZM11.5869 11.0566V5.16061h.7366v5.89599h-.7366ZM12.9468 11.0566V5.16061h.9945l.9374 4.08327h.0098V5.16061h.6881v5.89599h-.9707l-.9591-4.31117h-.0107v4.31117h-.6893ZM17.8088 6.97213c0-.13549-.0041-.26741-.0127-.39041-.0058-.11104-.0257-.22088-.0595-.32683-.0265-.08453-.0721-.1618-.1334-.22581-.064-.05786-.1481-.08836-.2344-.08497-.0566.00029-.1119.01738-.1588.04912-.0469.03173-.0834.07668-.1047.12915-.0716.15248-.118.31552-.1376.48281-.032.23119-.0489.46423-.0505.69763-.0065.26443-.0086.53748-.0086.82152 0 .46113.0086.83549.0258 1.11805.0085.2213.0358.44147.0817.65811.02.1185.0764.2279.1614.3129.0739.0563.165.0851.2579.0817.0639.0006.1274-.0094.188-.0297.0614-.0228.121-.0501.1783-.0817V8.87634h-.3972v-.9065h1.1364v2.98836c-.0484.0161-.1149.0354-.1978.0571-.0829.0217-.1721.0431-.2657.0656-.0936.0226-.1892.0387-.2837.0538-.0827.0115-.1661.018-.2496.0193-.2567.0123-.512-.0453-.7386-.1666-.1959-.1276-.3426-.3179-.416-.5399-.1074-.3094-.169-.63279-.1827-.95999-.0297-.3913-.0419-.86669-.0419-1.42794 0-.3708.0089-.73566.0267-1.09457.0117-.32456.0607-.64668.1462-.95999.0644-.25475.1919-.48917.3708-.68158.0929-.0904.2036-.16043.325-.20561.1215-.04517.251-.0645.3804-.05674.1701-.00233.3377.04151.4849.12686.1505.09068.2764.217.3666.36783.1076.18445.1818.38641.2193.59661.05.27.0688.54486.0558.81915l-.7318.0006ZM20.2675 5.16061h1.329c.1531-.00417.3038.03821.4323.12152.1249.09231.2241.21505.2882.35654.083.17723.1385.36609.1646.56006.0364.24022.054.48291.0526.72586-.0012.1858-.0127.37138-.0345.5559-.018.19334-.0625.38328-.1322.56452-.0638.1666-.1655.31605-.2971.43647-.1445.12159-.3296.18419-.5182.17529h-.5473v2.40073h-.7374V5.16061Zm.7374 2.58877h.4097c.0287-.00039.0569-.0067.083-.01851.026-.01181.0494-.02887.0686-.05012.0494-.05281.089-.11398.117-.18065.0347-.08113.0603-.16582.0764-.25255.0172-.0958.0259-.19294.0258-.29028 0-.12033-.0065-.23442-.016-.34406-.0094-.0972-.0307-.19289-.0633-.28493-.0263-.07331-.0703-.13902-.128-.19135-.0572-.04767-.1301-.07216-.2045-.06863h-.3687v1.68108ZM22.976 11.0566V5.16061h1.922V6.068h-1.1855v1.4526h1.0934v.9065h-1.0934v1.7233h1.2268v.9074l-1.9633-.0012ZM25.4207 11.0566V5.16061h.9956l.9374 4.08327h.0107V5.16061h.686v5.89599h-.9698l-.9611-4.31117h-.0107v4.31117h-.6881ZM28.686 5.16061h1.2288c.2132-.00978.4224.05989.5871.1955.165.15622.2852.35368.3483.57195.0923.29826.1486.60647.1678.91809.0297.36218.044.7725.044 1.23006v.53481c0 .20442-.0086.41834-.0238.64088-.0161.22113-.0466.44097-.0915.65811-.0379.20049-.1041.39459-.1967.57639-.0819.161-.1987.3017-.3419.4118-.1518.1096-.3356.1656-.5227.1593H28.686V5.16061Zm.7365 4.98859h.3566c.0502.0017.1002-.0071.1468-.0257.0467-.0187.089-.0469.1241-.0828.0837-.1023.1396-.22448.1622-.35472.0452-.20871.0721-.42096.0806-.63434.015-.2575.0225-.57175.0225-.94275 0-.27305-.0032-.53124-.0074-.77636-.0021-.21765-.0212-.43481-.057-.6495-.0217-.15786-.0735-.31008-.1527-.44835-.0296-.05226-.073-.09542-.1253-.1248-.0524-.02939-.1118-.04387-.1719-.04188h-.3785v4.0812ZM31.6536 11.0566V5.16061h.7365v5.89599h-.7365ZM33.0155 11.0566V5.16061h.9945l.9365 4.08327h.0095V5.16061h.6893v5.89599h-.9718l-.9612-4.31117h-.0107v4.31117h-.6861ZM37.8764 6.97213c0-.13549-.0042-.26741-.0128-.39041-.0063-.11098-.0262-.22075-.0594-.32683-.0268-.08486-.0733-.16222-.1355-.22581-.0315-.02898-.0685-.05141-.1087-.066-.0403-.01459-.083-.02104-.1257-.01897-.0567.00044-.1119.0176-.1587.04932-.0469.03171-.0834.07657-.1049.12895-.0717.15227-.1175.31545-.1355.48281-.0323.23119-.0498.4642-.0526.69763-.0032.26443-.0065.53748-.0065.82152 0 .46113.0074.83549.0247 1.11805.0082.22138.0359.44161.0829.65811.0196.1184.0756.2277.1601.3129.0743.0563.1659.0852.2591.0817.0639.0004.1274-.0096.1881-.0297.0613-.023.1208-.0503.1782-.0817V8.87634h-.4011v-.9065h1.1374v2.98836c-.0493.0161-.115.0354-.1967.0571-.0817.0217-.1732.0431-.2674.0656-.0942.0226-.1881.0387-.2829.0538-.0823.0116-.1652.018-.2484.0193-.2571.0122-.5127-.0454-.7398-.1666-.1955-.128-.3421-.3182-.4159-.5399-.107-.3095-.1685-.63285-.1828-.95999-.0267-.3913-.0398-.86669-.0398-1.42794 0-.3708.0075-.73536.0259-1.09457.0121-.32451.0612-.64657.1462-.95999.0644-.25451.1916-.48883.3699-.68158.1606-.14217.361-.23143.5742-.25567.2131-.02424.4285.01772.6169.12018.1506.09063.2765.21697.3666.36783.1076.18445.1818.38641.2193.59661.0495.27007.0683.54487.0559.81915l-.7303.0006Z" />
</svg>