<svg xmlns="http://www.w3.org/2000/svg" fill="none" viewBox="0 0 43 64">
  <path fill="#fff" d="M42.6669 0H0v64h42.6669V0Z" />
  <path fill="#1A1818" d="M42.0462.68641V63.3122H.620029V.68641H42.0462Z" />
  <path fill="#fff"
    d="M2.70468 2.9123H39.6635V13.296H2.70468V2.9123ZM2.68773 15.5622H39.6677v38.1777H2.68773V15.5622ZM2.6955 61.0559v-5.069h7.4241v1.1864H5.67772v.7246h3.75901V59.08H5.67772v.7938h4.61418v1.1821H2.6955ZM16.6003 57.4636c-.0362-.0894-.0948-.1679-.1701-.228-.0753-.0601-.1649-.0998-.26-.1152-.2513-.0679-.511-.0993-.7712-.0933-.656 0-.9491.1067-.9491.2959 0 .7493 5.2357.2825 5.2357 2.1235 0 1.173-1.7612 1.7471-4.2611 1.7471-2.4011 0-3.9695-.7817-4.0331-1.6948h2.8559c.0468.0996.1157.1873.2013.2565.0856.0692.1858.1182.293.1432.2738.0874.5599.1306.8474.1278.745 0 1.2415-.132 1.2415-.3722 0-.7683-5.2392-.2415-5.2392-2.1736 0-1.0762 1.6694-1.6171 3.9469-1.6171 2.5253 0 3.6778.7167 3.8953 1.603l-2.8332-.0028ZM24.1501 58.186h1.1729c.9237 0 1.4195-.1342 1.4195-.4837 0-.3496-.5057-.529-1.2005-.529h-1.3905l-.0014 1.0127Zm0 1.1045v1.7654h-2.9822v-5.069h4.2992c3.0295 0 4.0309.4633 4.0309 1.4484 0 .5862-.4668 1.0727-1.5289 1.2436.9604.1928 1.543.3128 1.543 1.3354 0 .6589-.0388.8884.315.8884v.1539h-3.0246c-.1176-.2801-.1688-.5837-.1497-.8869 0-.6653-.202-.8792-1.5925-.8792h-.9102ZM34.3127 57.1733v.8474h1.2429c.5946 0 1.0254-.1525 1.0254-.4427 0-.3969-.5882-.4054-1.2146-.4054l-1.0537.0007Zm0 1.7655v.9343h1.3008c.7394 0 1.2945-.0862 1.2945-.4647 0-.4428-.6935-.4696-1.6468-.4696h-.9485Zm-2.9815 2.1185v-5.069h4.3508c2.048 0 3.68.2755 3.68 1.2782 0 .5226-.6095.9032-1.1893 1.101.9852.1412 1.5141.6172 1.5141 1.1609 0 1.1299-1.5536 1.5289-3.92 1.5289h-4.4356Z" />
  <path fill="#1A1818"
    d="m5.77376 24.8273 28.60894-7.1325 2.2004 7.6268-9.1924 2.2909 6.1643 21.4228-10.2283 2.5514-6.1686-21.4228-9.18741 2.293-2.19693-7.6296ZM30.9852 5.1615h2.4293l2.8184 3.20889-.0975-1.34175V5.1615h2.4844v5.8754h-2.4265l-2.8247-3.20038.0473 1.38694.0523 1.81344h-2.4844l.0014-5.8754ZM22.2342 5.1615h6.4425v1.36505h-3.8544v.84742h3.2612v1.37141h-3.2612v.91804h4.0076v1.37348h-6.5957V5.1615ZM13.1781 5.1615h6.4439v1.36505h-3.8543v.84742h3.259v1.37141H15.767v.91804h4.0104v1.37348h-6.6l.0007-5.8754ZM3.73147 5.1615h7.24543v1.54159H8.65216v4.33381H6.05694V6.70309H3.73077l.0007-1.54159Z" />
</svg>