<svg xmlns="http://www.w3.org/2000/svg" fill="none" viewBox="0 0 82 64">
  <path fill="currentColor"
    d="M65.3393 21.8198c-.3705.288-6.9112 3.9812-6.9112 12.1932 0 9.4985 8.3228 12.8589 8.5719 12.9421-.0383.2048-1.3222 4.6021-4.3882 9.0825-2.7338 3.9428-5.5889 7.8792-9.9324 7.8792-4.3434 0-5.4612-2.5283-10.4754-2.5283-4.8863 0-6.6237 2.6115-10.5967 2.6115s-6.7451-3.6484-9.9324-8.1288C17.9829 50.6099 15 42.4362 15 34.6787c0-12.4429 8.0737-19.0419 16.0197-19.0419 4.222 0 7.7415 2.7778 10.3923 2.7778 2.523 0 6.4577-2.9443 11.261-2.9443 1.8204 0 8.3612.1665 12.6663 6.3495ZM50.3927 10.2026c1.9865-2.36182 3.3917-5.63894 3.3917-8.91607 0-.454447-.0383-.915293-.1213-1.28653-3.2321.121612-7.0773 2.15702-9.3959 4.85168-1.8204 2.07381-3.5195 5.35092-3.5195 8.67292 0 .4992.083.9985.1214 1.1585.2044.0384.5365.0832.8686.0832 2.8999 0 6.5472-1.9458 8.655-4.5637Z" />
</svg>