<svg xmlns="http://www.w3.org/2000/svg" fill="none" viewBox="0 0 64 64">
  <rect width="64" height="64" fill="#333" rx="8" />
  <path fill="#fff"
    d="M48.0352 24.3192c-.2432.1891-4.5355 2.6127-4.5355 8.0018 0 6.2335 5.4618 8.4387 5.6253 8.4933-.0251.1344-.8677 3.0201-2.8797 5.9604-1.7941 2.5874-3.6678 5.1707-6.5182 5.1707s-3.5839-1.6592-6.8745-1.6592C29.646 50.2862 28.5058 52 25.8985 52c-2.6072 0-4.4264-2.3942-6.5181-5.3345C16.9575 43.2127 15 37.8488 15 32.7579c0-8.1656 5.2984-12.4963 10.5129-12.4963 2.7707 0 5.0804 1.823 6.82 1.823 1.6557 0 4.2378-1.9322 7.39-1.9322 1.1947 0 5.487.1092 8.3123 4.1668Zm-9.8087-7.6237c1.3036-1.55 2.2258-3.7006 2.2258-5.8512 0-.2982-.0252-.6007-.0797-.8443-2.121.0798-4.6444 1.4155-6.166 3.1839-1.1947 1.361-2.3097 3.5116-2.3097 5.6916 0 .3276.0545.6553.0797.7603.1341.0252.3521.0546.5701.0546 1.903 0 4.2965-1.277 5.6798-2.9949Z" />
</svg>