<svg xmlns="http://www.w3.org/2000/svg" fill="none" viewBox="0 0 64 64">
  <rect width="64" height="64" fill="#0070D1" rx="8" />
  <path fill="#fff"
    d="M25.949 13c2.0873.3904 4.139.9481 6.1808 1.5294 1.168.3403 2.3328.6924 3.4902 1.0674 1.8179.581 3.6281 1.2387 5.2746 2.2197.7376.4494 1.446.957 2.0514 1.5762.656.6431 1.1929 1.406 1.587 2.2361.718 1.5043.9639 3.1849 1.0366 4.8372.0342 1.0782.0321 2.1657-.1685 3.23-.1668.9248-.4633 1.8368-.9564 2.6401-.4355.7096-1.0408 1.323-1.7756 1.7184-.7048.3811-1.5119.5627-2.3111.5466-1.2122.0129-2.3884-.375-3.4763-.883-.0196-3.6296-.0028-7.2599-.0085-10.8892-.0079-.6567.0367-1.3202-.0952-1.968-.0926-.5019-.2968-1.0078-.6895-1.3485-.2604-.2355-.5979-.3685-.9371-.4404-.3431-.0654-.7091.0808-.9215.3571-.3531.4426-.4457 1.0303-.4617 1.5812-.0029 9.717.0035 19.4344-.0029 29.1507-2.6054-.8283-5.2112-1.6574-7.816-2.4882-.0028-11.5577-.0017-23.1151-.0003-34.6728ZM14.2381 37.5894c3.3968-1.2065 6.7901-2.4245 10.1883-3.6271.0054 1.3381 0 2.6765.0022 4.0157-.0022.1816.0096.3639-.0132.5445-2.686.9552-5.3666 1.9272-8.0501 2.8885-.372.1409-.7536.3007-1.0405.5856-.1336.1337-.2423.331-.1692.5226.0919.2256.3214.3482.533.4412.5887.2402 1.2322.2742 1.8593.3031.6991-.0111 1.4011-.0636 2.086-.2152.4628-.0911.9082-.2477 1.3494-.414 1.1466-.4164 2.2933-.8354 3.4417-1.2476.0085 1.1318.0014 2.2643.0036 3.3972-.0036.2263.0103.4541-.0122.6796-1.4103.2542-2.8374.4269-4.2709.4494-2.8865.0654-5.7799-.3829-8.5218-1.288-.8994-.2614-1.79301-.6092-2.54379-1.1823-.41333-.321-.7832-.7246-.97134-1.2212-.15749-.4204-.14609-.9062.05025-1.312.1892-.4046.51987-.7246.88403-.9731.84271-.5837 1.77205-1.0288 2.71375-1.426.8114-.3475 1.653-.6177 2.4815-.9209Z" />
  <path fill="#fff"
    d="M41.5691 36.0653c.7704-.0894 1.5458-.1105 2.3201-.1384 2.548.0097 5.1089.3278 7.5462 1.0947.4782.1458.9414.3346 1.4178.4869.8491.3113 1.6993.6889 2.3792 1.3012.4087.374.7607.8777.7657 1.4529.0242.468-.1871.917-.4896 1.2623-.5758.6478-1.3369 1.0929-2.1012 1.4811-.8135.4161-1.6879.6846-2.541 1.0013-5.2066 1.8758-10.4135 3.7508-15.6194 5.6287-.0007-1.4632.0014-2.926-.0007-4.3885.0078-.0583-.0243-.1602.0581-.1756 3.9616-1.4142 7.9221-2.8324 11.883-4.2502.5355-.2009 1.1124-.3464 1.5671-.711.186-.1466.3681-.3797.2769-.631-.0952-.2199-.3225-.3418-.5317-.4326-.5929-.2356-1.2385-.2813-1.8692-.2988-.9874.0067-1.9837.129-2.9226.4465-2.8217.992-5.6385 1.9962-8.4609 2.985.0003-1.5712-.0007-3.1413.0007-4.7121 2.0421-.7189 4.1743-1.1547 6.3215-1.4024Z" />
</svg>