<svg xmlns="http://www.w3.org/2000/svg" fill="none" viewBox="0 0 64 64">
  <rect width="64" height="64" fill="#0070D1" rx="8" />
  <path fill="#fff"
    d="M11.5831 43.0128h31.3454c.0961 0 .1613.0657.1613.1313v2.659c0 .1313.1.1969.1961.1969h5.65c.1 0 .1952-.0656.1952-.1969v-2.5933c0-.0987.1-.197.1961-.197h5.6152c.1308 0 .1961-.0986.1961-.1965V40.19c0-.0987-.0653-.1969-.1961-.1969h-5.6152c-.0961 0-.1961-.0987-.1961-.197V20.8563c0-1.5455-.5743-2.5298-1.5399-2.8563h-1.6346c-.5096.1309-1.0634.3652-1.6573.7221L10.5384 39.5662c-1.30595.8203-1.76374 1.7389-1.43681 2.4285.26085.5912 1.00991 1.0181 2.48151 1.0181Zm4.8966-3.4793 26.1528-16.1826c.1647-.1313.4917-.0983.4917.2626v16.1822c0 .0983-.1.1969-.1961.1969H16.641c-.2265 0-.3269-.0652-.3574-.1308-.0347-.1313.0305-.2296.1961-.3283Z" />
</svg>