<svg xmlns="http://www.w3.org/2000/svg" fill="none" viewBox="0 0 64 64">
  <rect width="64" height="64" fill="#0070D1" rx="8" />
  <path fill="#fff"
    d="M51.8733 18H12.0002v10.8091s-.1213 4.1736 5.0405 4.1736h24.3724c.9561-.0078 1.9033.1849 2.7803.5656 1.3609.6068 2.8908 1.842 2.8908 4.3341 0 2.2363-1.0835 3.5062-2.1562 4.217-.888.5737-1.9246.875-2.9818.8668h-29.946V46h33.3916s7.5845-.3077 7.5845-8.1025c0-3.9634-2.3144-5.9268-4.3969-6.8889-1.3456-.6181-2.8098-.9354-4.2906-.9297H20.1331c-.4026.0053-.8002-.0892-1.1572-.2752-.5158-.2795-1.0835-.8343-1.0835-1.9264v-6.8847h33.9809V18Z" />
</svg>