<svg xmlns="http://www.w3.org/2000/svg" fill="none" viewBox="0 0 64 64">
  <rect width="64" height="64" fill="#0F7C10" rx="8" />
  <path fill="#fff"
    d="M8 43.497h4.8362l3.676-5.1841-2.4153-3.4122-6.09132 8.5963H8Zm21.1969-23.0798h-4.8362l-3.0067 4.2411 2.4154 3.4122 5.4275-7.6533Zm-15.6913 0H8.66938L25.03 43.4913h4.8363L13.5056 20.4172Zm19.6016 0h.9985v23.0741h-.9985V20.4172Zm6.6882 10.574c.8478.7773 1.7403 1.2346 3.2074 1.6918l2.3149-3.2579c-1.3109-.3487-1.679-.5773-2.2201-1.0345-.6526-.503-.8311-1.0403-.8311-2.0291 0-.9888.3235-1.5832 1.0487-2.1091.7363-.5258 1.4837-.703 2.8838-.703 3.8155 0 5.0148 1.7547 5.9463 3.1322l2.1755-3.115c-.3179-.503-1.0319-1.3261-1.4949-1.7319C51.409 20.6001 48.977 20 46.1656 20c-2.3317 0-4.5964.5658-5.963 1.6518-1.3723 1.0803-2.3484 2.9607-2.3484 4.7726 0 1.8118.8088 3.538 1.9356 4.5725l.0056-.0057Zm14.3637 1.4289c-1.0041-.9717-2.4098-1.5661-4.6522-2.0919l-2.3707 3.3208.3626.0857c1.8184.4058 2.432.8345 3.1237 1.3546.5355.4001.9316 1.0002.9316 1.949 0 1.1775-.2566 1.8748-1.0989 2.4978-.8479.623-1.8241.8802-3.4027.8802-2.6887 0-5.3996-1.1889-6.571-4.1439l-2.3875 3.3323c.3849.7544 1.2384 1.8233 1.8854 2.372C41.558 43.2913 44.1128 44 46.9465 44c2.6106 0 5.1375-.6802 6.6045-1.8633 1.6344-1.3146 2.4488-2.7835 2.4488-5.1841.0112-1.9605-.5299-3.2579-1.8463-4.5382l.0056.0057Z" />
</svg>