<svg xmlns="http://www.w3.org/2000/svg" fill="none" viewBox="0 0 82 64">
  <g fill="currentColor" clip-path="url(#a)">
    <path
      d="M22.7016.212044C16.3266 1.35164 11.1973 6.06903 9.58035 12.2705c-.58316 2.2395-.62293 3.5513-.55666 20.9235.03977 15.9543.05302 16.3253.31809 17.5577 1.47122 6.6388 6.18952 11.3694 12.89602 12.933.8747.1988 1.988.2386 9.1583.2783 7.4222.053 8.1909.0398 8.3897-.159.1988-.1988.2121-2.7562.2121-31.7496 0-21.4933-.0398-31.617087-.1326-31.802602-.1325-.2385197-.3578-.25177118-8.1246-.2385201-6.3088.0132511-8.2041.0530043-9.0391.1987661ZM34.6963 32.0147v26.8467l-5.3943-.0663c-4.9701-.053-5.5003-.0795-6.4943-.3313-4.2678-1.0998-7.4354-4.3861-8.3234-8.6662-.2916-1.3383-.2916-34.3071-.0133-35.6189.7952-3.7236 3.3797-6.81107 6.8655-8.20243 1.7495-.70231 2.558-.78182 8.2306-.79507l5.1292-.01325V32.0147Z" />
    <path
      d="M23.8415 13.2643c-.835.1591-2.1074.7951-2.7833 1.3914-1.3916 1.2059-2.0808 2.9152-1.9748 4.9294.053 1.0468.1193 1.3251.5434 2.1732.6229 1.2853 1.5639 2.2262 2.8496 2.8622.888.4373 1.1133.4903 2.2664.5301 1.047.0397 1.4181 0 2.1206-.2386 2.8761-.9673 4.6123-3.7633 4.1219-6.6255-.5699-3.4055-3.8038-5.6847-7.1438-5.0222ZM46.4525.0927572C46.3995.13251 46.3597 14.4967 46.3597 32.0146c0 28.9007.0133 31.8291.2121 31.9086.3579.1326 10.6428.0796 11.9152-.053 5.3811-.6095 10.1259-3.8825 12.7104-8.7457.3314-.6228.7687-1.6696.9941-2.3189.8349-2.4912.8084-1.8287.8084-20.8705 0-15.199-.0265-17.4649-.212-18.4322C71.4758 6.59904 66.214 1.39136 59.2955.198766 58.3677.0397532 56.9363 0 52.324 0c-3.1809 0-5.8317.0397529-5.8715.0927572ZM60.6076 28.9536c2.0676.5433 3.7641 2.1202 4.4533 4.1344.4374 1.2456.4241 3.0742-.0133 4.2138-.8084 2.0937-2.3989 3.5646-4.44 4.1078-3.3134.8614-6.839-1.1395-7.8065-4.4258-.2916-1.0071-.2783-2.7032.053-3.7368.9941-3.2465 4.4401-5.1547 7.7535-4.2934Z" />
  </g>
  <defs>
    <clipPath id="a">
      <path fill="#fff" d="M0 0h64v64H0z" transform="translate(9)" />
    </clipPath>
  </defs>
</svg>