<svg xmlns="http://www.w3.org/2000/svg" fill="none" viewBox="0 0 64 64">
  <rect width="64" height="64" fill="#E60012" rx="12" />
  <path fill="#fff"
    d="M18.2762 8.159c-4.7813.8547-8.62821 4.3927-9.84093 9.0439-.43738 1.6795-.4672 2.6634-.4175 15.6926.02982 11.9657.03976 12.244.23857 13.1682 1.10338 4.9791 4.64216 8.5271 9.67196 9.6998.6561.1491 1.4911.1789 6.8688.2087 5.5666.0398 6.1431.0298 6.2923-.1192.1491-.1491.159-2.0672.159-23.8122 0-16.12-.0298-23.71285-.0994-23.85198-.0994-.17889-.2684-.18883-6.0934-.17889-4.7317.00993-6.1531.03975-6.7794.14907Zm8.9961 43.987-4.0458-.0497c-3.7276-.0398-4.1252-.0596-4.8708-.2485-3.2007-.8249-5.5765-3.2896-6.2425-6.4996-.2187-1.0038-.2187-25.7303-.0099-26.7142.5964-2.7927 2.5348-5.1083 5.1491-6.1518 1.3121-.5268 1.9185-.5864 6.1729-.5963l3.847-.01V52.146Z" />
  <path fill="#fff"
    d="M19.1311 17.9483c-.6262.1192-1.5805.5962-2.0875 1.0435-1.0437.9044-1.5606 2.1864-1.4811 3.697.0398.7852.0895.9939.4076 1.6299.4672.964 1.1729 1.6696 2.1372 2.1467.666.3279.835.3677 1.6998.3975.7853.0298 1.0636 0 1.5904-.1789 2.1571-.7255 3.4593-2.8225 3.0915-4.9691-.4275-2.5542-2.8529-4.2636-5.3579-3.7666Zm16.9583-9.87873c-.0398.02981-.0696 10.80293-.0696 23.94143 0 21.6754.0099 23.8718.159 23.9314.2684.0994 7.9822.0596 8.9364-.0397 4.0358-.4572 7.5945-2.912 9.5328-6.5593.2486-.4671.5766-1.2522.7456-1.7392.6262-1.8684.6063-1.3715.6063-15.6529 0-11.3992-.0198-13.0987-.159-13.8242-.9841-5.1778-4.9304-9.08358-10.1193-9.97803C45.0258 8.02981 43.9522 8 40.493 8c-2.3857 0-4.3738.02981-4.4036.06957ZM46.7057 29.7152c1.5507.4075 2.8231 1.5901 3.34 3.1008.328.9342.318 2.3057-.01 3.1603-.6063 1.5703-1.7992 2.6735-3.33 3.0809-2.4851.646-5.1292-.8547-5.8549-3.3194-.2187-.7553-.2087-2.0274.0398-2.8026.7455-2.4349 3.33-3.866 5.8151-3.22Z" />
</svg>