<svg xmlns="http://www.w3.org/2000/svg" fill="none" viewBox="0 0 64 64">
  <rect width="64" height="64" fill="#0F7C10" rx="8" />
  <path fill="#fff"
    d="M32 27.2478c7.2419 5.4994 19.5112 19.0087 15.8005 22.8344C43.5511 53.7883 38.0449 56 32 56s-11.611-2.2117-15.8005-5.9178c-3.7706-3.8257 8.5586-17.335 15.7406-22.7746 0-.0598.0599-.0598.0599-.0598Zm12.5087-15.721C40.8578 9.31507 36.8479 8 32 8c-4.8479 0-8.8579 1.31507-12.5087 3.5268-.0599 0-.0599.0598-.0599.1195 0 .0598.0599.0598.1197.0598 4.6684-1.0162 11.7307 2.9888 12.389 3.4072h.1197c.6584-.4184 7.7207-4.4234 12.3891-3.4072.0598 0 .1197 0 .1197-.0598 0-.0597 0-.1195-.0599-.1195ZM15.182 14.8742c-.0598 0-.0598.0598-.1197.0598C10.6933 19.2976 8 25.335 8 31.9701c0 5.4396 1.85536 10.5206 4.9077 14.5255 0 .0598.0599.0598.1197.0598.0599 0 .0599-.0598 0-.1195-1.8553-5.6787 7.5412-19.3674 12.3891-25.1059l.0598-.0598c0-.0597 0-.0597-.0598-.0597-7.3616-7.2927-9.8155-6.5156-10.2345-6.3363Zm23.4015 6.2765-.0598.0598s0 .0597.0598.0597c4.8479 5.7385 14.1846 19.4272 12.3891 25.1059v.1195c.0598 0 .1197 0 .1197-.0597C54.1446 42.4309 56 37.3499 56 31.9103c0-6.6351-2.6933-12.6724-7.1222-17.0361-.0598-.0598-.0598-.0598-.1197-.0598-.3591-.1195-2.813-.8966-10.1746 6.3363Z" />
</svg>