<svg xmlns="http://www.w3.org/2000/svg" fill="none" viewBox="0 0 64 64">
  <rect width="64" height="64" fill="#666" rx="8" />
  <path fill="#78C345"
    d="M56 32c0 13.2555-10.7452 24-24 24S8 45.2555 8 32C8 18.746 18.7452 8 32 8s24 10.7445 24 24Z" />
  <path fill="#fff"
    d="M56 32c0 13.2555-10.7452 24-24 24S8 45.2555 8 32C8 18.746 18.7452 8 32 8s24 10.7445 24 24Z" />
  <path fill="#fff"
    d="M56 32c0 13.2555-10.7452 24-24 24S8 45.2555 8 32C8 18.746 18.7452 8 32 8s24 10.7445 24 24Z" />
  <path fill="#fff"
    d="M56 32c0 13.2555-10.7452 24-24 24S8 45.2555 8 32C8 18.746 18.7452 8 32 8s24 10.7445 24 24Z" />
  <path fill="#78C345"
    d="M25.9112 21.4871C23.2608 24.7363 12.1599 37.9414 13.1444 46.87c.6857.8777 1.4411 1.7008 2.2392 2.4749-.1166-6.8349 7.8132-14.149 14.0017-19.6702l-3.4755-8.1876h.0014Z" />
  <path fill="#78C345"
    d="M25.9098 21.4871c-2.6488 3.249-13.7501 16.454-12.7654 25.3829.6851.8785 1.4405 1.7006 2.2388 2.4739-.1161-6.8335 7.813-14.1491 14.0021-19.6692l-3.4755-8.1876Z" />
  <path fill="#78C345"
    d="M19.3965 11.5876c-1.3779.8432-2.6681 1.8231-3.8513 2.925 3.8068.7316 7.6252 4.1217 9.7193 6.9299 1.8231 2.8832 2.8136 5.5259 4.1007 8.2535.8955-.7741 1.8015-1.536 2.7175-2.2855l-.0057-11.8466c-2.8365-1.7829-7.5249-4.1289-12.6361-3.9763-.0115.0072-.0344-.0072-.0444 0Z" />
  <path fill="#78C345"
    d="M19.3965 11.5876c-1.3779.8432-2.6681 1.8231-3.8513 2.925 3.8068.7316 7.6252 4.1217 9.7193 6.9299 1.8231 2.8832 2.8136 5.5259 4.1007 8.2535.8955-.7741 1.8015-1.536 2.7175-2.2855l-.0057-11.8466c-2.8365-1.7829-7.5249-4.1289-12.6361-3.9763-.0115.0072-.0344-.0072-.0444 0ZM38.0989 21.4972c2.6404 3.252 13.7043 16.4686 12.7227 25.403-.6829.8777-1.4354 1.7022-2.2307 2.4778.1152-6.8407-7.7876-14.162-13.9561-19.6875l3.4641-8.1933Z" />
  <path fill="#78C345"
    d="M38.0985 21.4961c2.64 3.2517 13.7045 16.469 12.7231 25.4041-.6868.8764-1.4316 1.7044-2.2307 2.4778.1152-6.8407-7.7876-14.162-13.9561-19.6875l3.4637-8.1944Z" />
  <path fill="#78C345"
    d="M44.5905 11.588c1.3732.8447 2.6596 1.8254 3.84 2.9274-3.7943.7323-7.6015 4.1252-9.6872 6.9359-1.8171 2.8856-2.8057 5.5305-4.0886 8.2619-.8685-.748-1.7514-1.5091-2.7085-2.2874l.0057-11.8582c2.8271-1.7844 7.5-4.1324 12.5943-3.9796.01.0072.0343-.0072.0443 0Z" />
  <path fill="#78C345"
    d="M44.5905 11.588c1.3732.8447 2.6596 1.8254 3.84 2.9274-3.7943.7323-7.6015 4.1252-9.6872 6.9359-1.8171 2.8856-2.8057 5.5305-4.0886 8.2619-.8685-.748-1.7514-1.5091-2.7085-2.2874l.0057-11.8582c2.8271-1.7844 7.5-4.1324 12.5943-3.9796.01.0072.0343-.0072.0443 0Z" />
</svg>