<svg xmlns="http://www.w3.org/2000/svg" fill="none" viewBox="0 0 64 64">
  <path fill="currentColor"
    d="M53.1077 23.402c1.8533-5.705 2.2012-10.9067.938-14.84734l-.0352-.11182c-.0766-.21329-.265-.66472-.5032-.66472-.1822 0-.1843.30233-.1739.45557l.0124.08904c.4017 3.52027-.6751 8.53977-2.839 13.79747-4.4376-2.0149-9.7677-3.6238-15.6818-4.5723-5.3136-.8552-10.4014-1.0436-15.013-.6667.5467-3.628 1.903-6.1523 4.127-6.6865 3.0606-.73098 6.3986 1.2818 9.5814 4.945.5508.0745 1.1016.156 1.6525.2443 1.571.2526 3.113.5522 4.626.8987C33.9946 5.36569 26.2106-.753391 20.2903 1.5058c-4.5059 1.71873-6.8065 7.9165-6.5332 16.2472C7.89065 19.0016 3.21075 21.3002.429722 24.3649l-.076618.0849c-.149095.1739-.4452127.5632-.3251089.7703.0890429.1553.3520289.0062.4824859-.0787l.070406-.0538c2.847293-2.1081 7.734273-3.686 13.368813-4.4418.4742 4.8518 1.7456 10.2709 3.8785 15.8661 1.9175 5.0299 4.2989 9.5296 6.9329 13.3357-3.4167 1.3418-6.2827 1.4288-7.8544-.2299-2.166-2.284-2.0914-6.1812-.5094-10.772-.2098-.5136-.4148-1.0313-.615-1.5531-.5596-1.4677-1.0714-2.9532-1.5344-4.4542-6.55397 10.4842-7.96001 20.2851-3.044 24.2838 3.7397 3.044 10.2606 1.9361 17.3363-2.4642 4.0152 4.4562 8.3452 7.3594 12.3894 8.2354l.1139.0248c.2236.0414.7082.1035.8283-.1035.0911-.1574-.1698-.3106-.3086-.379l-.0828-.0352c-3.249-1.4102-7.0592-4.8538-10.5298-9.3557 3.9634-2.8369 8.0221-6.6471 11.8012-11.2939 3.3961-4.1746 6.1025-8.4859 8.0843-12.6709 2.868 2.2902 4.3755 4.7255 3.7273 6.9163-.8966 3.0192-4.3072 4.9036-9.074 5.8271-1.3043 1.682-2.682 3.3056-4.1291 4.8663 12.3562.4349 21.5462-3.2511 22.5505-9.5048.7662-4.7627-3.4519-9.8547-10.8031-13.7829ZM42.375 35.8804c-4.3569 5.357-9.7885 9.9168-14.6196 12.5529-1.8443-2.9483-3.403-6.0658-4.655-9.3101-2.4601-6.4525-3.6943-13.4372-3.5617-18.9392 3.4756-.1232 6.955.0855 10.391.6233 6.8169 1.0975 13.4827 3.5203 18.1812 6.3842-1.6312 3.0721-3.5519 5.9816-5.7359 8.6889Z" />
</svg>