<svg xmlns="http://www.w3.org/2000/svg" fill="none" viewBox="0 0 64 64">
  <path fill="currentColor"
    d="M29.3911 18.9299v-6.1707c0-.9835-.4615-1.4383-1.4147-1.4383h-1.5595v9.0439h1.5595c.9566 0 1.4147-.4547 1.4147-1.4349ZM24.3319 40.824l-.8488 2.1153h1.6875l-.8387-2.1153Z" />
  <path fill="currentColor" fill-rule="evenodd"
    d="M9.35642 0H54.6433c3.7153 0 5.0694 1.35069 5.0694 5.01204V49.6152c0 .5726-.1011 1.6067-.2897 2.0513-.1497.4227-.3913.8069-.7074 1.125-.357.3335-.9768.6804-1.2732.8152L33.4331 63.7116c-.4538.1904-.9411.2884-1.4332.2884-.4922 0-.9794-.098-1.4332-.2884L6.56072 53.6067c-.45956-.213-.88884-.486-1.27659-.8118-.31651-.3191-.55812-.7045-.70735-1.1284-.18525-.4412-.28967-1.4753-.28967-2.0479V5.01204C4.28711 1.35069 5.64454 0 9.35642 0ZM38.6843 8.02668h-3.7927V32.5648h3.7927V8.02668ZM37.2898 38.4324h-2.2029l-1.7986 2.8799-1.792-2.8799h-2.2062v7.4372h2.0445v-4.2508l1.9132 2.89h.0438l1.9233-2.9102v4.271h2.0749v-7.4372ZM28.576 8.02668h-5.9484V32.5682h3.7893v-8.9058h2.1591c3.082 0 4.6078-1.5057 4.6078-4.5573V12.584c0-3.05168-1.5258-4.55732-4.6078-4.55732Zm-7.8482 0h-8.4342V32.5682h8.5016v-3.402h-4.7089v-7.3968h4.4596v-3.402h-4.4596v-6.9387h4.6382l.0033-3.40202ZM18.0534 45.6979c.5457-.2201 1.0183-.4929 1.4181-.8185v-3.3481h-3.4559v1.5157h1.482v.8993c-.3621.2179-.7803.3245-1.2025.3066-.2711.0069-.5409-.0409-.7932-.1404-.2523-.0995-.482-.2488-.6753-.439-.1826-.1882-.3267-.4102-.4245-.6534-.0998-.2649-.1512-.5456-.1515-.8287v-.0202c-.0024-.5349.1973-1.051.5591-1.445.1725-.1899.3832-.3413.6183-.444.2351-.1028.4893-.1546.7459-.1522.3727 0 .7006.0607.9835.1819.3023.1311.5838.3059.8354.5188l1.2227-1.4518c-.3954-.3374-.8438-.6071-1.3272-.7983-.5519-.2021-1.1369-.2992-1.7245-.2863-.5839 0-1.1228.0988-1.6168.2964-.4775.1908-.9142.4708-1.2867.8253-.3593.3503-.64.759-.8421 1.226-.2021.4693-.3043.9757-.3065 1.5191v.0236c0 .5614.1033 1.0756.3099 1.5427.2088.4716.4962.878.8623 1.2193.3637.3391.7949.6041 1.2934.7949.5008.1909 1.0442.2864 1.6303.2864.6871 0 1.3035-.1101 1.8492-.3301m5.2882-7.3194-3.2066 7.4911h2.1961l.5389-1.3271h2.9002l.5524 1.3271h2.2332l-3.2033-7.4911H23.345Zm17.7611 15.7839.0438-.0606.0135-.0775c-.0008-.0516-.0213-.1011-.0573-.1381-.0167-.0191-.0375-.0341-.0608-.044-.0233-.0099-.0486-.0144-.0739-.0132H23.0587c-.0517.0007-.1011.0212-.1381.0572l-.0438.0606-.0168.0775c.0016.0522.0233.1016.0606.1381.0157.018.0359.0315.0606.0404l8.6903 3.6883c.0963.0413.2.0625.3048.0625s.2085-.0212.3048-.0625l8.7576-3.6883.0674-.0404Zm-2.4218-8.2928h6.1067v-1.7515h-4.0419v-1.1789h3.6108v-1.6269h-3.6108v-1.125h3.988v-1.7515h-6.0494l-.0034 7.4338Zm2.0008-33.4978v15.8479c0 3.0517 1.5258 4.5573 4.6078 4.5573h1.8762c3.082 0 4.6044-1.509 4.6044-4.5573v-5.7194h-3.7186v5.5409c0 .9802-.4614 1.4349-1.4147 1.4349h-.7073c-.9937 0-1.4551-.4547-1.4551-1.4349V12.547c0-.9836.4581-1.4383 1.4517-1.4383h.64c.9532 0 1.4147.4547 1.4147 1.4349v4.8032h3.7186v-5.0087c0-3.05167-1.4888-4.52362-4.5708-4.52362h-1.8425c-3.0786 0-4.6044 1.509-4.6044 4.55732Zm11.0143 32.2314c.1484-.3196.2232-.6684.219-1.0206v-.0236c.0144-.2996-.0468-.5979-.1781-.8675-.1313-.2696-.3284-.5018-.5731-.6752-.2725-.1926-.5722-.3435-.8892-.448-.3816-.1321-.7708-.2412-1.1654-.3267-.2159-.0445-.4295-.0996-.64-.1651-.1357-.0443-.2685-.0971-.3975-.1583-.0822-.04-.1529-.1003-.2054-.1751-.0402-.067-.0601-.1443-.0573-.2223v-.0202c0-.1348.0618-.2482.1853-.3402.171-.1006.3677-.1487.5658-.1381.3369 0 .6849.0617 1.0442.1852.3638.1235.7175.3065 1.061.549l1.0442-1.4551c-.409-.327-.8733-.5779-1.3709-.741-.5052-.1684-1.0812-.2515-1.7279-.2492-.4514 0-.8556.0583-1.2126.1751-.3359.1035-.6483.2717-.9196.4951-.253.206-.4551.4675-.5907.7643-.1355.2967-.2008.6208-.1907.9469v.0235c-.0063.3335.0701.6633.2223.96.1482.2582.3492.4738.6029.6467.2538.1752.5535.3178.8994.4278.3413.1078.7129.2088 1.1149.3031.2582.0562.4682.1101.6298.1617.1347.0425.2645.0989.3874.1684.0769.0437.1444.1021.1987.1718.036.0606.0539.1303.0539.2089v.0202c.0031.0775-.0162.1544-.0556.2213-.0394.0669-.0973.121-.1667.1559-.199.0968-.4188.1431-.64.1347-.8735 0-1.6864-.2986-2.4386-.8959l-1.1621 1.3709c.4693.4109 1.0049.7197 1.6067.9263.6063.2043 1.2463.3065 1.9199.3065.4212.0052.841-.0504 1.2463-.1651.3488-.0935.6753-.2561.96-.4783.2561-.2068.4661-.465.6164-.7578"
    clip-rule="evenodd" />
</svg>