<svg xmlns="http://www.w3.org/2000/svg" fill="none" viewBox="0 0 64 64">
  <path fill="currentColor" fill-rule="evenodd"
    d="M56.9773 30.7825c0 1.5463-1.2497 2.788-2.7858 2.788H42.2403V29.98H52.317c.5943 0 1.072-.4845 1.072-1.0754v-11.872c0-.592-.4777-1.072-1.072-1.072h-5.4142c-.5863 0-1.0651.48-1.0651 1.072v5.4028c0 .5932.4788 1.0743 1.0651 1.0743h4.323v3.5917h-6.1964c-1.5417 0-2.7891-1.2452-2.7891-2.7847v-9.1632c0-1.5395 1.2474-2.7869 2.7891-2.7869h9.1621c1.5361 0 2.7858 1.2474 2.7858 2.7869v15.629Zm-.0102 20.8428h-3.5408V40.6476h-2.488c-.5864 0-1.0539.4731-1.0539 1.0572v9.9205h-3.5419V40.6476h-2.488c-.5853 0-1.0539.4731-1.0539 1.0572v9.9296H39.261V39.8473c0-1.5089 1.2259-2.7383 2.745-2.7383h14.9611v14.5163ZM36.5827 27.1014h-9.1666c-1.5394 0-2.7835-1.2452-2.7835-2.7847v-9.1632c0-1.5395 1.2441-2.7869 2.7835-2.7869h9.1666c1.5361 0 2.7847 1.2474 2.7847 2.7869v9.1632c0 1.5395-1.2486 2.7847-2.7847 2.7847Zm-.1584 21.7778c0 1.5168-1.2293 2.7461-2.7439 2.7461h-9.0297c-1.5191 0-2.7461-1.2293-2.7461-2.7461v-9.0319c0-1.5089 1.227-2.7383 2.7461-2.7383h9.0297c1.5146 0 2.7439 1.2294 2.7439 2.7383v9.0319ZM21.7574 30.7825c0 1.5463-1.2485 2.788-2.7868 2.788H7.02156V29.98H17.096c.5932 0 1.0686-.4845 1.0686-1.0754v-11.872c0-.592-.4754-1.072-1.0686-1.072h-5.4153c-.592 0-1.0674.48-1.0674 1.072v5.4028c0 .5932.4754 1.0743 1.0674 1.0743h4.3264v3.5917H9.80732c-1.54173 0-2.78576-1.2452-2.78576-2.7847v-9.1632c0-1.5395 1.24403-2.7869 2.78576-2.7869h9.16328c1.5383 0 2.7868 1.2474 2.7868 2.7869v15.629Zm-2.6872 9.8651h-7.445c-.584 0-1.0527.4731-1.0527 1.0572 0 0 .0023 0 .0023.0068h-.0023v5.3134h.0023l-.0023.0046c0 .5818.4687 1.0595 1.0527 1.0595h7.445v3.5453H9.78015v-.0091c-1.52136 0-2.75067-1.2293-2.75067-2.7461v-9.0319c0-1.5089 1.22931-2.7383 2.75067-2.7383h9.29005v3.5386ZM59.9385 1.54846H4.06035C1.81793 1.54846 0 3.36639 0 5.60768V58.3922c0 2.2413 1.81793 4.0592 4.06035 4.0592H59.9385c2.2436 0 4.0615-1.8179 4.0615-4.0592V5.60768c0-2.24129-1.8179-4.05922-4.0615-4.05922Z"
    clip-rule="evenodd" />
  <path fill="currentColor" fill-rule="evenodd"
    d="M34.7072 15.9611c.5943 0 1.0595.4799 1.0595 1.0719v5.4029c0 .5931-.4652 1.0742-1.0595 1.0742h-5.4119c-.5943 0-1.0709-.4811-1.0709-1.0742V17.033c0-.592.4766-1.0719 1.0709-1.0719h5.4119Zm-2.8736 24.6865c.5818 0 1.0504.4731 1.0504 1.0583v5.3191c0 .583-.4686 1.0595-1.0504 1.0595-.0057 0-.0068-.0056-.0125-.0056v.0056H26.51v-.0056s-.0057.0056-.0113.0056c-.5841 0-1.0528-.4765-1.0528-1.0595v-5.3191c0-.5852.4687-1.0583 1.0528-1.0583h5.3349Z"
    clip-rule="evenodd" />
</svg>