<svg xmlns="http://www.w3.org/2000/svg" fill="none" viewBox="0 0 64 64">
  <g fill="currentColor" clip-path="url(#a)">
    <path
      d="M14.4516 4.12903C14.4516 1.84862 16.3002 0 18.5806 0h26.8388c2.2805 0 4.129 1.84862 4.129 4.12903v6.19357c0 1.1402-.9244 2.0645-2.0645 2.0645-1.1402 0-2.0645-.9243-2.0645-2.0645V4.12903H18.5806v6.19357c0 1.1402-.9243 2.0645-2.0645 2.0645-1.1402 0-2.0645-.9243-2.0645-2.0645V4.12903Z" />
    <path d="M45.4194 0H18.5806v4.12903h26.8388V0Z" />
    <path fill-rule="evenodd"
      d="M64 10.8387c0-1.42523-1.1554-2.58064-2.5806-2.58064H2.58065C1.15539 8.25806 0 9.41347 0 10.8387v42.8387C0 59.3783 4.62157 64 10.3226 64h43.3548C59.3783 64 64 59.3783 64 53.6774V10.8387Zm-33.0323 11.871H18.5806v12.3871h12.3871V22.7097Zm2.0646 0h12.3871v12.3871H33.0323V22.7097Zm12.3871 14.4516H33.0323v12.3871h12.3871V37.1613Zm-26.8388 0h12.3871v12.3871H18.5806V37.1613Z"
      clip-rule="evenodd" />
  </g>
  <defs>
    <clipPath id="a">
      <path fill="#fff" d="M0 0h64v64H0z" />
    </clipPath>
  </defs>
</svg>