<svg xmlns="http://www.w3.org/2000/svg" fill="none" viewBox="0 0 64 64">
  <g clip-path="url(#a)">
    <path fill="currentColor" fill-rule="evenodd"
      d="m49.9829 41.7596-2.796-4.4636h-8.1635l2.8005-4.4715h2.5789l-3.1172-4.9774-8.6962 13.9125H9.38887l5.58593-8.9351h-4.1016l2.7884-4.4713h17.9336l-2.7898 4.4713h-8.5535l-2.796 4.4715h12.6528l11.1769-17.8877 13.9682 22.3513h-5.2709ZM19.2497 19.4083h18.3957l-2.796 4.4734h-18.394l2.7943-4.4734ZM31.999.0001831C14.3273.0001831 0 14.3282 0 32.0011 0 49.678 14.3273 63.9998 31.999 63.9998 49.6705 63.9998 64 49.678 64 32.0011 64 14.3282 49.6705.0001831 31.999.0001831Z"
      clip-rule="evenodd" />
  </g>
  <defs>
    <clipPath id="a">
      <path fill="#fff" d="M0 0h64v64H0z" />
    </clipPath>
  </defs>
</svg>