<svg xmlns="http://www.w3.org/2000/svg" fill="none" viewBox="0 0 64 64">
  <g fill="currentColor" clip-path="url(#a)">
    <path
      d="M31.9638 0C15.0759 0 1.30464 12.9446 0 29.4328l17.1778 7.087c1.4496-1.0125 3.1891-1.591 5.0736-1.591h.5074l7.6829-10.9921v-.1446c0-6.6531 5.436-12.0768 12.1042-12.0768 6.6681 0 12.1042 5.4237 12.1042 12.0768S49.214 35.8689 42.5459 35.8689h-.29l-10.872 7.7379v.4339c0 4.9898-4.0589 9.0395-9.06 9.0395-4.4213 0-8.0453-3.1096-8.9151-7.3039L1.0872 40.7141C4.85617 54.165 17.2503 64 31.9638 64 49.6489 64 64 49.6814 64 32.0362 64 14.3186 49.6489 0 31.9638 0Z" />
    <path
      d="m20.077 48.5243-3.9139-1.591c.7248 1.4464 1.8845 2.6757 3.479 3.3266 3.4791 1.4463 7.4655-.217 8.9151-3.6881.7248-1.6633.7248-3.5436 0-5.2068-.7248-1.6633-2.0295-2.965-3.6965-3.6882-1.667-.7231-3.4791-.6508-5.0011-.0723l4.0589 1.6633c2.5368 1.0847 3.7689 3.9774 2.6817 6.5085-1.0147 2.6034-3.9864 3.8327-6.5232 2.748ZM50.5912 23.7198c0-4.4113-3.6241-8.0271-8.0453-8.0271-4.4213 0-8.0453 3.6158-8.0453 8.0271 0 4.4113 3.624 8.0271 8.0453 8.0271 4.4212 0 8.0453-3.5435 8.0453-8.0271Zm-14.1337 0c0-3.3266 2.6818-6.0023 6.0884-6.0023 3.4065 0 6.0883 2.6757 6.0883 6.0023 0 3.3265-2.6818 6.0022-6.0883 6.0022-3.4066 0-6.0884-2.6757-6.0884-6.0022Z" />
  </g>
  <defs>
    <clipPath id="a">
      <path fill="#fff" d="M0 0h64v64H0z" />
    </clipPath>
  </defs>
</svg>