<svg xmlns="http://www.w3.org/2000/svg" fill="none" viewBox="0 0 64 64">
  <path fill="currentColor"
    d="M62.7949 31.9895C62.1871-.831345 18.6285-12.9872 1.81287 17.6051c.81039.6078 1.82338 1.4182 2.43118 1.8234-1.21559 2.6337-2.22858 5.4701-2.63378 8.1039-.20259 1.8234-.40519 3.6467-.40519 5.6727C1.20508 50.2233 14.9817 64 32 64c17.0182 0 30.7949-13.7767 30.7949-30.7949v-1.2156ZM8.9038 37.4597c-.4052 3.2415-.2026 4.4571-.2026 4.8623l-.81039.2026c-.2026-.6078-1.01299-2.4312-1.21559-5.0649-.81039-9.9273 5.87538-18.8416 16.20788-20.4624 9.5221-1.4182 18.4364 4.4571 20.6649 12.7636l-.8103.2026c-.2026-.2026-.6078-.8103-2.026-2.4311-11.3455-11.5481-29.3767-6.2806-31.8079 9.9273Zm29.1741 5.4701c-1.6208 2.2286-4.052 3.6468-6.8883 3.6468-4.6598 0-8.5091-3.8494-8.5091-8.5091 0-4.4572 3.4441-8.104 7.9013-8.3066 2.6338-.2026 5.2675 1.4182 6.4831 3.6468 1.2156 2.6338.8104 5.6728-1.2156 7.9013.8104.6078 1.6208 1.2156 2.2286 1.6208Zm17.626.4052c-4.4571 10.1299-13.574 15.3975-23.2987 15.1949-18.8416-1.013-24.31179-22.4884-11.7507-30.3897l.6078.6078c-.2026.2026-1.013.8103-2.026 3.2415-1.4182 2.8364-1.8234 5.4702-1.6208 7.2935 1.013 15.1949 22.0832 18.2339 29.3767 3.2416C56.1091 21.8596 31.5948.992037 9.71419 16.9973l-.40519-.6078C14.9817 7.47517 26.1246 3.42321 36.8623 6.05699 53.2728 10.3115 62.1871 27.3298 55.7039 43.335Z" />
</svg>